<?xml version="1.0" encoding="utf-8" standalone="no"?>
<!DOCTYPE svg PUBLIC "-//W3C//DTD SVG 1.1//EN"
  "http://www.w3.org/Graphics/SVG/1.1/DTD/svg11.dtd">
<!-- Created with matplotlib (https://matplotlib.org/) -->
<svg height="432pt" version="1.1" viewBox="0 0 720 432" width="720pt" xmlns="http://www.w3.org/2000/svg" xmlns:xlink="http://www.w3.org/1999/xlink">
 <defs>
  <style type="text/css">
*{stroke-linecap:butt;stroke-linejoin:round;}
  </style>
 </defs>
 <g id="figure_1">
  <g id="patch_1">
   <path d="M 0 432 
L 720 432 
L 720 0 
L 0 0 
z
" style="fill:#ffffff;"/>
  </g>
  <g id="axes_1">
   <g id="patch_2">
    <path d="M 90 378 
L 648 378 
L 648 51.84 
L 90 51.84 
z
" style="fill:#ffffff;"/>
   </g>
   <g id="matplotlib.axis_1">
    <g id="xtick_1">
     <g id="line2d_1">
      <path clip-path="url(#p3720cb4c6b)" d="M 108.672869 378 
L 108.672869 51.84 
" style="fill:none;stroke:#b0b0b0;stroke-linecap:square;stroke-width:0.8;"/>
     </g>
     <g id="line2d_2">
      <defs>
       <path d="M 0 0 
L 0 3.5 
" id="mc0c970221f" style="stroke:#000000;stroke-width:0.8;"/>
      </defs>
      <g>
       <use style="stroke:#000000;stroke-width:0.8;" x="108.672869" xlink:href="#mc0c970221f" y="378"/>
      </g>
     </g>
     <g id="text_1">
      <!-- −10.0 -->
      <defs>
       <path d="M 10.59375 35.5 
L 73.1875 35.5 
L 73.1875 27.203125 
L 10.59375 27.203125 
z
" id="DejaVuSans-8722"/>
       <path d="M 12.40625 8.296875 
L 28.515625 8.296875 
L 28.515625 63.921875 
L 10.984375 60.40625 
L 10.984375 69.390625 
L 28.421875 72.90625 
L 38.28125 72.90625 
L 38.28125 8.296875 
L 54.390625 8.296875 
L 54.390625 0 
L 12.40625 0 
z
" id="DejaVuSans-49"/>
       <path d="M 31.78125 66.40625 
Q 24.171875 66.40625 20.328125 58.90625 
Q 16.5 51.421875 16.5 36.375 
Q 16.5 21.390625 20.328125 13.890625 
Q 24.171875 6.390625 31.78125 6.390625 
Q 39.453125 6.390625 43.28125 13.890625 
Q 47.125 21.390625 47.125 36.375 
Q 47.125 51.421875 43.28125 58.90625 
Q 39.453125 66.40625 31.78125 66.40625 
z
M 31.78125 74.21875 
Q 44.046875 74.21875 50.515625 64.515625 
Q 56.984375 54.828125 56.984375 36.375 
Q 56.984375 17.96875 50.515625 8.265625 
Q 44.046875 -1.421875 31.78125 -1.421875 
Q 19.53125 -1.421875 13.0625 8.265625 
Q 6.59375 17.96875 6.59375 36.375 
Q 6.59375 54.828125 13.0625 64.515625 
Q 19.53125 74.21875 31.78125 74.21875 
z
" id="DejaVuSans-48"/>
       <path d="M 10.6875 12.40625 
L 21 12.40625 
L 21 0 
L 10.6875 0 
z
" id="DejaVuSans-46"/>
      </defs>
      <g transform="translate(93.350213 392.598437)scale(0.1 -0.1)">
       <use xlink:href="#DejaVuSans-8722"/>
       <use x="83.789062" xlink:href="#DejaVuSans-49"/>
       <use x="147.412109" xlink:href="#DejaVuSans-48"/>
       <use x="211.035156" xlink:href="#DejaVuSans-46"/>
       <use x="242.822266" xlink:href="#DejaVuSans-48"/>
      </g>
     </g>
    </g>
    <g id="xtick_2">
     <g id="line2d_3">
      <path clip-path="url(#p3720cb4c6b)" d="M 173.077041 378 
L 173.077041 51.84 
" style="fill:none;stroke:#b0b0b0;stroke-linecap:square;stroke-width:0.8;"/>
     </g>
     <g id="line2d_4">
      <g>
       <use style="stroke:#000000;stroke-width:0.8;" x="173.077041" xlink:href="#mc0c970221f" y="378"/>
      </g>
     </g>
     <g id="text_2">
      <!-- −7.5 -->
      <defs>
       <path d="M 8.203125 72.90625 
L 55.078125 72.90625 
L 55.078125 68.703125 
L 28.609375 0 
L 18.3125 0 
L 43.21875 64.59375 
L 8.203125 64.59375 
z
" id="DejaVuSans-55"/>
       <path d="M 10.796875 72.90625 
L 49.515625 72.90625 
L 49.515625 64.59375 
L 19.828125 64.59375 
L 19.828125 46.734375 
Q 21.96875 47.46875 24.109375 47.828125 
Q 26.265625 48.1875 28.421875 48.1875 
Q 40.625 48.1875 47.75 41.5 
Q 54.890625 34.8125 54.890625 23.390625 
Q 54.890625 11.625 47.5625 5.09375 
Q 40.234375 -1.421875 26.90625 -1.421875 
Q 22.3125 -1.421875 17.546875 -0.640625 
Q 12.796875 0.140625 7.71875 1.703125 
L 7.71875 11.625 
Q 12.109375 9.234375 16.796875 8.0625 
Q 21.484375 6.890625 26.703125 6.890625 
Q 35.15625 6.890625 40.078125 11.328125 
Q 45.015625 15.765625 45.015625 23.390625 
Q 45.015625 31 40.078125 35.4375 
Q 35.15625 39.890625 26.703125 39.890625 
Q 22.75 39.890625 18.8125 39.015625 
Q 14.890625 38.140625 10.796875 36.28125 
z
" id="DejaVuSans-53"/>
      </defs>
      <g transform="translate(160.935635 392.598437)scale(0.1 -0.1)">
       <use xlink:href="#DejaVuSans-8722"/>
       <use x="83.789062" xlink:href="#DejaVuSans-55"/>
       <use x="147.412109" xlink:href="#DejaVuSans-46"/>
       <use x="179.199219" xlink:href="#DejaVuSans-53"/>
      </g>
     </g>
    </g>
    <g id="xtick_3">
     <g id="line2d_5">
      <path clip-path="url(#p3720cb4c6b)" d="M 237.481213 378 
L 237.481213 51.84 
" style="fill:none;stroke:#b0b0b0;stroke-linecap:square;stroke-width:0.8;"/>
     </g>
     <g id="line2d_6">
      <g>
       <use style="stroke:#000000;stroke-width:0.8;" x="237.481213" xlink:href="#mc0c970221f" y="378"/>
      </g>
     </g>
     <g id="text_3">
      <!-- −5.0 -->
      <g transform="translate(225.339807 392.598437)scale(0.1 -0.1)">
       <use xlink:href="#DejaVuSans-8722"/>
       <use x="83.789062" xlink:href="#DejaVuSans-53"/>
       <use x="147.412109" xlink:href="#DejaVuSans-46"/>
       <use x="179.199219" xlink:href="#DejaVuSans-48"/>
      </g>
     </g>
    </g>
    <g id="xtick_4">
     <g id="line2d_7">
      <path clip-path="url(#p3720cb4c6b)" d="M 301.885386 378 
L 301.885386 51.84 
" style="fill:none;stroke:#b0b0b0;stroke-linecap:square;stroke-width:0.8;"/>
     </g>
     <g id="line2d_8">
      <g>
       <use style="stroke:#000000;stroke-width:0.8;" x="301.885386" xlink:href="#mc0c970221f" y="378"/>
      </g>
     </g>
     <g id="text_4">
      <!-- −2.5 -->
      <defs>
       <path d="M 19.1875 8.296875 
L 53.609375 8.296875 
L 53.609375 0 
L 7.328125 0 
L 7.328125 8.296875 
Q 12.9375 14.109375 22.625 23.890625 
Q 32.328125 33.6875 34.8125 36.53125 
Q 39.546875 41.84375 41.421875 45.53125 
Q 43.3125 49.21875 43.3125 52.78125 
Q 43.3125 58.59375 39.234375 62.25 
Q 35.15625 65.921875 28.609375 65.921875 
Q 23.96875 65.921875 18.8125 64.3125 
Q 13.671875 62.703125 7.8125 59.421875 
L 7.8125 69.390625 
Q 13.765625 71.78125 18.9375 73 
Q 24.125 74.21875 28.421875 74.21875 
Q 39.75 74.21875 46.484375 68.546875 
Q 53.21875 62.890625 53.21875 53.421875 
Q 53.21875 48.921875 51.53125 44.890625 
Q 49.859375 40.875 45.40625 35.40625 
Q 44.1875 33.984375 37.640625 27.21875 
Q 31.109375 20.453125 19.1875 8.296875 
z
" id="DejaVuSans-50"/>
      </defs>
      <g transform="translate(289.743979 392.598437)scale(0.1 -0.1)">
       <use xlink:href="#DejaVuSans-8722"/>
       <use x="83.789062" xlink:href="#DejaVuSans-50"/>
       <use x="147.412109" xlink:href="#DejaVuSans-46"/>
       <use x="179.199219" xlink:href="#DejaVuSans-53"/>
      </g>
     </g>
    </g>
    <g id="xtick_5">
     <g id="line2d_9">
      <path clip-path="url(#p3720cb4c6b)" d="M 366.289558 378 
L 366.289558 51.84 
" style="fill:none;stroke:#b0b0b0;stroke-linecap:square;stroke-width:0.8;"/>
     </g>
     <g id="line2d_10">
      <g>
       <use style="stroke:#000000;stroke-width:0.8;" x="366.289558" xlink:href="#mc0c970221f" y="378"/>
      </g>
     </g>
     <g id="text_5">
      <!-- 0.0 -->
      <g transform="translate(358.337995 392.598437)scale(0.1 -0.1)">
       <use xlink:href="#DejaVuSans-48"/>
       <use x="63.623047" xlink:href="#DejaVuSans-46"/>
       <use x="95.410156" xlink:href="#DejaVuSans-48"/>
      </g>
     </g>
    </g>
    <g id="xtick_6">
     <g id="line2d_11">
      <path clip-path="url(#p3720cb4c6b)" d="M 430.69373 378 
L 430.69373 51.84 
" style="fill:none;stroke:#b0b0b0;stroke-linecap:square;stroke-width:0.8;"/>
     </g>
     <g id="line2d_12">
      <g>
       <use style="stroke:#000000;stroke-width:0.8;" x="430.69373" xlink:href="#mc0c970221f" y="378"/>
      </g>
     </g>
     <g id="text_6">
      <!-- 2.5 -->
      <g transform="translate(422.742168 392.598437)scale(0.1 -0.1)">
       <use xlink:href="#DejaVuSans-50"/>
       <use x="63.623047" xlink:href="#DejaVuSans-46"/>
       <use x="95.410156" xlink:href="#DejaVuSans-53"/>
      </g>
     </g>
    </g>
    <g id="xtick_7">
     <g id="line2d_13">
      <path clip-path="url(#p3720cb4c6b)" d="M 495.097902 378 
L 495.097902 51.84 
" style="fill:none;stroke:#b0b0b0;stroke-linecap:square;stroke-width:0.8;"/>
     </g>
     <g id="line2d_14">
      <g>
       <use style="stroke:#000000;stroke-width:0.8;" x="495.097902" xlink:href="#mc0c970221f" y="378"/>
      </g>
     </g>
     <g id="text_7">
      <!-- 5.0 -->
      <g transform="translate(487.14634 392.598437)scale(0.1 -0.1)">
       <use xlink:href="#DejaVuSans-53"/>
       <use x="63.623047" xlink:href="#DejaVuSans-46"/>
       <use x="95.410156" xlink:href="#DejaVuSans-48"/>
      </g>
     </g>
    </g>
    <g id="xtick_8">
     <g id="line2d_15">
      <path clip-path="url(#p3720cb4c6b)" d="M 559.502075 378 
L 559.502075 51.84 
" style="fill:none;stroke:#b0b0b0;stroke-linecap:square;stroke-width:0.8;"/>
     </g>
     <g id="line2d_16">
      <g>
       <use style="stroke:#000000;stroke-width:0.8;" x="559.502075" xlink:href="#mc0c970221f" y="378"/>
      </g>
     </g>
     <g id="text_8">
      <!-- 7.5 -->
      <g transform="translate(551.550512 392.598437)scale(0.1 -0.1)">
       <use xlink:href="#DejaVuSans-55"/>
       <use x="63.623047" xlink:href="#DejaVuSans-46"/>
       <use x="95.410156" xlink:href="#DejaVuSans-53"/>
      </g>
     </g>
    </g>
    <g id="xtick_9">
     <g id="line2d_17">
      <path clip-path="url(#p3720cb4c6b)" d="M 623.906247 378 
L 623.906247 51.84 
" style="fill:none;stroke:#b0b0b0;stroke-linecap:square;stroke-width:0.8;"/>
     </g>
     <g id="line2d_18">
      <g>
       <use style="stroke:#000000;stroke-width:0.8;" x="623.906247" xlink:href="#mc0c970221f" y="378"/>
      </g>
     </g>
     <g id="text_9">
      <!-- 10.0 -->
      <g transform="translate(612.773434 392.598437)scale(0.1 -0.1)">
       <use xlink:href="#DejaVuSans-49"/>
       <use x="63.623047" xlink:href="#DejaVuSans-48"/>
       <use x="127.246094" xlink:href="#DejaVuSans-46"/>
       <use x="159.033203" xlink:href="#DejaVuSans-48"/>
      </g>
     </g>
    </g>
    <g id="text_10">
     <!-- $x$ -->
     <defs>
      <path d="M 60.015625 54.6875 
L 34.90625 27.875 
L 50.296875 0 
L 39.984375 0 
L 28.421875 21.6875 
L 8.296875 0 
L -2.59375 0 
L 24.3125 28.8125 
L 10.015625 54.6875 
L 20.3125 54.6875 
L 30.8125 34.90625 
L 49.125 54.6875 
z
" id="DejaVuSans-Oblique-120"/>
     </defs>
     <g transform="translate(366 406.276563)scale(0.1 -0.1)">
      <use transform="translate(0 0.3125)" xlink:href="#DejaVuSans-Oblique-120"/>
     </g>
    </g>
   </g>
   <g id="matplotlib.axis_2">
    <g id="ytick_1">
     <g id="line2d_19">
      <path clip-path="url(#p3720cb4c6b)" d="M 90 363.307497 
L 648 363.307497 
" style="fill:none;stroke:#b0b0b0;stroke-linecap:square;stroke-width:0.8;"/>
     </g>
     <g id="line2d_20">
      <defs>
       <path d="M 0 0 
L -3.5 0 
" id="mf7523bd371" style="stroke:#000000;stroke-width:0.8;"/>
      </defs>
      <g>
       <use style="stroke:#000000;stroke-width:0.8;" x="90" xlink:href="#mf7523bd371" y="363.307497"/>
      </g>
     </g>
     <g id="text_11">
      <!-- 0 -->
      <g transform="translate(76.6375 367.106716)scale(0.1 -0.1)">
       <use xlink:href="#DejaVuSans-48"/>
      </g>
     </g>
    </g>
    <g id="ytick_2">
     <g id="line2d_21">
      <path clip-path="url(#p3720cb4c6b)" d="M 90 303.389832 
L 648 303.389832 
" style="fill:none;stroke:#b0b0b0;stroke-linecap:square;stroke-width:0.8;"/>
     </g>
     <g id="line2d_22">
      <g>
       <use style="stroke:#000000;stroke-width:0.8;" x="90" xlink:href="#mf7523bd371" y="303.389832"/>
      </g>
     </g>
     <g id="text_12">
      <!-- 20 -->
      <g transform="translate(70.275 307.189051)scale(0.1 -0.1)">
       <use xlink:href="#DejaVuSans-50"/>
       <use x="63.623047" xlink:href="#DejaVuSans-48"/>
      </g>
     </g>
    </g>
    <g id="ytick_3">
     <g id="line2d_23">
      <path clip-path="url(#p3720cb4c6b)" d="M 90 243.472167 
L 648 243.472167 
" style="fill:none;stroke:#b0b0b0;stroke-linecap:square;stroke-width:0.8;"/>
     </g>
     <g id="line2d_24">
      <g>
       <use style="stroke:#000000;stroke-width:0.8;" x="90" xlink:href="#mf7523bd371" y="243.472167"/>
      </g>
     </g>
     <g id="text_13">
      <!-- 40 -->
      <defs>
       <path d="M 37.796875 64.3125 
L 12.890625 25.390625 
L 37.796875 25.390625 
z
M 35.203125 72.90625 
L 47.609375 72.90625 
L 47.609375 25.390625 
L 58.015625 25.390625 
L 58.015625 17.1875 
L 47.609375 17.1875 
L 47.609375 0 
L 37.796875 0 
L 37.796875 17.1875 
L 4.890625 17.1875 
L 4.890625 26.703125 
z
" id="DejaVuSans-52"/>
      </defs>
      <g transform="translate(70.275 247.271385)scale(0.1 -0.1)">
       <use xlink:href="#DejaVuSans-52"/>
       <use x="63.623047" xlink:href="#DejaVuSans-48"/>
      </g>
     </g>
    </g>
    <g id="ytick_4">
     <g id="line2d_25">
      <path clip-path="url(#p3720cb4c6b)" d="M 90 183.554501 
L 648 183.554501 
" style="fill:none;stroke:#b0b0b0;stroke-linecap:square;stroke-width:0.8;"/>
     </g>
     <g id="line2d_26">
      <g>
       <use style="stroke:#000000;stroke-width:0.8;" x="90" xlink:href="#mf7523bd371" y="183.554501"/>
      </g>
     </g>
     <g id="text_14">
      <!-- 60 -->
      <defs>
       <path d="M 33.015625 40.375 
Q 26.375 40.375 22.484375 35.828125 
Q 18.609375 31.296875 18.609375 23.390625 
Q 18.609375 15.53125 22.484375 10.953125 
Q 26.375 6.390625 33.015625 6.390625 
Q 39.65625 6.390625 43.53125 10.953125 
Q 47.40625 15.53125 47.40625 23.390625 
Q 47.40625 31.296875 43.53125 35.828125 
Q 39.65625 40.375 33.015625 40.375 
z
M 52.59375 71.296875 
L 52.59375 62.3125 
Q 48.875 64.0625 45.09375 64.984375 
Q 41.3125 65.921875 37.59375 65.921875 
Q 27.828125 65.921875 22.671875 59.328125 
Q 17.53125 52.734375 16.796875 39.40625 
Q 19.671875 43.65625 24.015625 45.921875 
Q 28.375 48.1875 33.59375 48.1875 
Q 44.578125 48.1875 50.953125 41.515625 
Q 57.328125 34.859375 57.328125 23.390625 
Q 57.328125 12.15625 50.6875 5.359375 
Q 44.046875 -1.421875 33.015625 -1.421875 
Q 20.359375 -1.421875 13.671875 8.265625 
Q 6.984375 17.96875 6.984375 36.375 
Q 6.984375 53.65625 15.1875 63.9375 
Q 23.390625 74.21875 37.203125 74.21875 
Q 40.921875 74.21875 44.703125 73.484375 
Q 48.484375 72.75 52.59375 71.296875 
z
" id="DejaVuSans-54"/>
      </defs>
      <g transform="translate(70.275 187.35372)scale(0.1 -0.1)">
       <use xlink:href="#DejaVuSans-54"/>
       <use x="63.623047" xlink:href="#DejaVuSans-48"/>
      </g>
     </g>
    </g>
    <g id="ytick_5">
     <g id="line2d_27">
      <path clip-path="url(#p3720cb4c6b)" d="M 90 123.636836 
L 648 123.636836 
" style="fill:none;stroke:#b0b0b0;stroke-linecap:square;stroke-width:0.8;"/>
     </g>
     <g id="line2d_28">
      <g>
       <use style="stroke:#000000;stroke-width:0.8;" x="90" xlink:href="#mf7523bd371" y="123.636836"/>
      </g>
     </g>
     <g id="text_15">
      <!-- 80 -->
      <defs>
       <path d="M 31.78125 34.625 
Q 24.75 34.625 20.71875 30.859375 
Q 16.703125 27.09375 16.703125 20.515625 
Q 16.703125 13.921875 20.71875 10.15625 
Q 24.75 6.390625 31.78125 6.390625 
Q 38.8125 6.390625 42.859375 10.171875 
Q 46.921875 13.96875 46.921875 20.515625 
Q 46.921875 27.09375 42.890625 30.859375 
Q 38.875 34.625 31.78125 34.625 
z
M 21.921875 38.8125 
Q 15.578125 40.375 12.03125 44.71875 
Q 8.5 49.078125 8.5 55.328125 
Q 8.5 64.0625 14.71875 69.140625 
Q 20.953125 74.21875 31.78125 74.21875 
Q 42.671875 74.21875 48.875 69.140625 
Q 55.078125 64.0625 55.078125 55.328125 
Q 55.078125 49.078125 51.53125 44.71875 
Q 48 40.375 41.703125 38.8125 
Q 48.828125 37.15625 52.796875 32.3125 
Q 56.78125 27.484375 56.78125 20.515625 
Q 56.78125 9.90625 50.3125 4.234375 
Q 43.84375 -1.421875 31.78125 -1.421875 
Q 19.734375 -1.421875 13.25 4.234375 
Q 6.78125 9.90625 6.78125 20.515625 
Q 6.78125 27.484375 10.78125 32.3125 
Q 14.796875 37.15625 21.921875 38.8125 
z
M 18.3125 54.390625 
Q 18.3125 48.734375 21.84375 45.5625 
Q 25.390625 42.390625 31.78125 42.390625 
Q 38.140625 42.390625 41.71875 45.5625 
Q 45.3125 48.734375 45.3125 54.390625 
Q 45.3125 60.0625 41.71875 63.234375 
Q 38.140625 66.40625 31.78125 66.40625 
Q 25.390625 66.40625 21.84375 63.234375 
Q 18.3125 60.0625 18.3125 54.390625 
z
" id="DejaVuSans-56"/>
      </defs>
      <g transform="translate(70.275 127.436055)scale(0.1 -0.1)">
       <use xlink:href="#DejaVuSans-56"/>
       <use x="63.623047" xlink:href="#DejaVuSans-48"/>
      </g>
     </g>
    </g>
    <g id="ytick_6">
     <g id="line2d_29">
      <path clip-path="url(#p3720cb4c6b)" d="M 90 63.71917 
L 648 63.71917 
" style="fill:none;stroke:#b0b0b0;stroke-linecap:square;stroke-width:0.8;"/>
     </g>
     <g id="line2d_30">
      <g>
       <use style="stroke:#000000;stroke-width:0.8;" x="90" xlink:href="#mf7523bd371" y="63.71917"/>
      </g>
     </g>
     <g id="text_16">
      <!-- 100 -->
      <g transform="translate(63.9125 67.518389)scale(0.1 -0.1)">
       <use xlink:href="#DejaVuSans-49"/>
       <use x="63.623047" xlink:href="#DejaVuSans-48"/>
       <use x="127.246094" xlink:href="#DejaVuSans-48"/>
      </g>
     </g>
    </g>
    <g id="text_17">
     <!-- $f(x)$ -->
     <defs>
      <path d="M 47.796875 75.984375 
L 46.390625 68.5 
L 37.796875 68.5 
Q 32.90625 68.5 30.6875 66.578125 
Q 28.46875 64.65625 27.390625 59.515625 
L 26.421875 54.6875 
L 41.21875 54.6875 
L 39.890625 47.703125 
L 25.09375 47.703125 
L 15.828125 0 
L 6.78125 0 
L 16.109375 47.703125 
L 7.515625 47.703125 
L 8.796875 54.6875 
L 17.390625 54.6875 
L 18.109375 58.5 
Q 19.96875 68.171875 24.625 72.078125 
Q 29.296875 75.984375 39.3125 75.984375 
z
" id="DejaVuSans-Oblique-102"/>
      <path d="M 31 75.875 
Q 24.46875 64.65625 21.28125 53.65625 
Q 18.109375 42.671875 18.109375 31.390625 
Q 18.109375 20.125 21.3125 9.0625 
Q 24.515625 -2 31 -13.1875 
L 23.1875 -13.1875 
Q 15.875 -1.703125 12.234375 9.375 
Q 8.59375 20.453125 8.59375 31.390625 
Q 8.59375 42.28125 12.203125 53.3125 
Q 15.828125 64.359375 23.1875 75.875 
z
" id="DejaVuSans-40"/>
      <path d="M 8.015625 75.875 
L 15.828125 75.875 
Q 23.140625 64.359375 26.78125 53.3125 
Q 30.421875 42.28125 30.421875 31.390625 
Q 30.421875 20.453125 26.78125 9.375 
Q 23.140625 -1.703125 15.828125 -13.1875 
L 8.015625 -13.1875 
Q 14.5 -2 17.703125 9.0625 
Q 20.90625 20.125 20.90625 31.390625 
Q 20.90625 42.671875 17.703125 53.65625 
Q 14.5 64.65625 8.015625 75.875 
z
" id="DejaVuSans-41"/>
     </defs>
     <g transform="translate(57.832812 223.57)rotate(-90)scale(0.1 -0.1)">
      <use transform="translate(0 0.015625)" xlink:href="#DejaVuSans-Oblique-102"/>
      <use transform="translate(35.205078 0.015625)" xlink:href="#DejaVuSans-40"/>
      <use transform="translate(74.21875 0.015625)" xlink:href="#DejaVuSans-Oblique-120"/>
      <use transform="translate(133.398438 0.015625)" xlink:href="#DejaVuSans-41"/>
     </g>
    </g>
   </g>
   <g id="line2d_31">
    <defs>
     <path d="M 0 3 
C 0.795609 3 1.55874 2.683901 2.12132 2.12132 
C 2.683901 1.55874 3 0.795609 3 0 
C 3 -0.795609 2.683901 -1.55874 2.12132 -2.12132 
C 1.55874 -2.683901 0.795609 -3 0 -3 
C -0.795609 -3 -1.55874 -2.683901 -2.12132 -2.12132 
C -2.683901 -1.55874 -3 -0.795609 -3 0 
C -3 0.795609 -2.683901 1.55874 -2.12132 2.12132 
C -1.55874 2.683901 -0.795609 3 0 3 
z
" id="ma0a4d27dcd" style="stroke:#0000ff;"/>
    </defs>
    <g clip-path="url(#p3720cb4c6b)">
     <use style="fill:#0000ff;stroke:#0000ff;" x="115.363636" xlink:href="#ma0a4d27dcd" y="79.078786"/>
     <use style="fill:#0000ff;stroke:#0000ff;" x="119.618389" xlink:href="#ma0a4d27dcd" y="88.635936"/>
     <use style="fill:#0000ff;stroke:#0000ff;" x="119.946473" xlink:href="#ma0a4d27dcd" y="89.366118"/>
     <use style="fill:#0000ff;stroke:#0000ff;" x="121.515819" xlink:href="#ma0a4d27dcd" y="92.845308"/>
     <use style="fill:#0000ff;stroke:#0000ff;" x="127.013061" xlink:href="#ma0a4d27dcd" y="104.857229"/>
     <use style="fill:#0000ff;stroke:#0000ff;" x="127.641689" xlink:href="#ma0a4d27dcd" y="106.213459"/>
     <use style="fill:#0000ff;stroke:#0000ff;" x="128.221131" xlink:href="#ma0a4d27dcd" y="107.460387"/>
     <use style="fill:#0000ff;stroke:#0000ff;" x="143.67942" xlink:href="#ma0a4d27dcd" y="139.607093"/>
     <use style="fill:#0000ff;stroke:#0000ff;" x="144.142261" xlink:href="#ma0a4d27dcd" y="140.536336"/>
     <use style="fill:#0000ff;stroke:#0000ff;" x="158.899323" xlink:href="#ma0a4d27dcd" y="169.150298"/>
     <use style="fill:#0000ff;stroke:#0000ff;" x="161.385887" xlink:href="#ma0a4d27dcd" y="173.77819"/>
     <use style="fill:#0000ff;stroke:#0000ff;" x="161.579743" xlink:href="#ma0a4d27dcd" y="174.136641"/>
     <use style="fill:#0000ff;stroke:#0000ff;" x="163.903984" xlink:href="#ma0a4d27dcd" y="178.407887"/>
     <use style="fill:#0000ff;stroke:#0000ff;" x="167.58131" xlink:href="#ma0a4d27dcd" y="185.066054"/>
     <use style="fill:#0000ff;stroke:#0000ff;" x="168.23512" xlink:href="#ma0a4d27dcd" y="186.237064"/>
     <use style="fill:#0000ff;stroke:#0000ff;" x="168.747404" xlink:href="#ma0a4d27dcd" y="187.151895"/>
     <use style="fill:#0000ff;stroke:#0000ff;" x="169.996441" xlink:href="#ma0a4d27dcd" y="189.372476"/>
     <use style="fill:#0000ff;stroke:#0000ff;" x="170.430587" xlink:href="#ma0a4d27dcd" y="190.141012"/>
     <use style="fill:#0000ff;stroke:#0000ff;" x="171.912985" xlink:href="#ma0a4d27dcd" y="192.752388"/>
     <use style="fill:#0000ff;stroke:#0000ff;" x="172.543099" xlink:href="#ma0a4d27dcd" y="193.856381"/>
     <use style="fill:#0000ff;stroke:#0000ff;" x="173.469617" xlink:href="#ma0a4d27dcd" y="195.473167"/>
     <use style="fill:#0000ff;stroke:#0000ff;" x="183.696602" xlink:href="#ma0a4d27dcd" y="212.804568"/>
     <use style="fill:#0000ff;stroke:#0000ff;" x="189.02527" xlink:href="#ma0a4d27dcd" y="221.460749"/>
     <use style="fill:#0000ff;stroke:#0000ff;" x="193.550334" xlink:href="#ma0a4d27dcd" y="228.610223"/>
     <use style="fill:#0000ff;stroke:#0000ff;" x="211.113556" xlink:href="#ma0a4d27dcd" y="254.608376"/>
     <use style="fill:#0000ff;stroke:#0000ff;" x="215.048836" xlink:href="#ma0a4d27dcd" y="260.051717"/>
     <use style="fill:#0000ff;stroke:#0000ff;" x="219.190194" xlink:href="#ma0a4d27dcd" y="265.629113"/>
     <use style="fill:#0000ff;stroke:#0000ff;" x="219.482261" xlink:href="#ma0a4d27dcd" y="266.016604"/>
     <use style="fill:#0000ff;stroke:#0000ff;" x="219.896678" xlink:href="#ma0a4d27dcd" y="266.56511"/>
     <use style="fill:#0000ff;stroke:#0000ff;" x="225.701306" xlink:href="#ma0a4d27dcd" y="274.08488"/>
     <use style="fill:#0000ff;stroke:#0000ff;" x="227.064893" xlink:href="#ma0a4d27dcd" y="275.807253"/>
     <use style="fill:#0000ff;stroke:#0000ff;" x="230.950471" xlink:href="#ma0a4d27dcd" y="280.623135"/>
     <use style="fill:#0000ff;stroke:#0000ff;" x="234.663334" xlink:href="#ma0a4d27dcd" y="285.097595"/>
     <use style="fill:#0000ff;stroke:#0000ff;" x="234.746559" xlink:href="#ma0a4d27dcd" y="285.196467"/>
     <use style="fill:#0000ff;stroke:#0000ff;" x="236.638351" xlink:href="#ma0a4d27dcd" y="287.427026"/>
     <use style="fill:#0000ff;stroke:#0000ff;" x="236.791546" xlink:href="#ma0a4d27dcd" y="287.60624"/>
     <use style="fill:#0000ff;stroke:#0000ff;" x="237.643634" xlink:href="#ma0a4d27dcd" y="288.599178"/>
     <use style="fill:#0000ff;stroke:#0000ff;" x="239.995208" xlink:href="#ma0a4d27dcd" y="291.305466"/>
     <use style="fill:#0000ff;stroke:#0000ff;" x="242.471637" xlink:href="#ma0a4d27dcd" y="294.101473"/>
     <use style="fill:#0000ff;stroke:#0000ff;" x="257.486875" xlink:href="#ma0a4d27dcd" y="309.868768"/>
     <use style="fill:#0000ff;stroke:#0000ff;" x="264.395256" xlink:href="#ma0a4d27dcd" y="316.439468"/>
     <use style="fill:#0000ff;stroke:#0000ff;" x="275.919696" xlink:href="#ma0a4d27dcd" y="326.441656"/>
     <use style="fill:#0000ff;stroke:#0000ff;" x="280.434282" xlink:href="#ma0a4d27dcd" y="330.033049"/>
     <use style="fill:#0000ff;stroke:#0000ff;" x="281.834568" xlink:href="#ma0a4d27dcd" y="331.109598"/>
     <use style="fill:#0000ff;stroke:#0000ff;" x="282.791384" xlink:href="#ma0a4d27dcd" y="331.835026"/>
     <use style="fill:#0000ff;stroke:#0000ff;" x="283.244625" xlink:href="#ma0a4d27dcd" y="332.175772"/>
     <use style="fill:#0000ff;stroke:#0000ff;" x="302.376744" xlink:href="#ma0a4d27dcd" y="344.867844"/>
     <use style="fill:#0000ff;stroke:#0000ff;" x="308.936428" xlink:href="#ma0a4d27dcd" y="348.458705"/>
     <use style="fill:#0000ff;stroke:#0000ff;" x="313.133292" xlink:href="#ma0a4d27dcd" y="350.55234"/>
     <use style="fill:#0000ff;stroke:#0000ff;" x="313.661405" xlink:href="#ma0a4d27dcd" y="350.804528"/>
     <use style="fill:#0000ff;stroke:#0000ff;" x="329.006409" xlink:href="#ma0a4d27dcd" y="357.032666"/>
     <use style="fill:#0000ff;stroke:#0000ff;" x="330.299694" xlink:href="#ma0a4d27dcd" y="357.460441"/>
     <use style="fill:#0000ff;stroke:#0000ff;" x="331.477953" xlink:href="#ma0a4d27dcd" y="357.837023"/>
     <use style="fill:#0000ff;stroke:#0000ff;" x="341.292698" xlink:href="#ma0a4d27dcd" y="360.486856"/>
     <use style="fill:#0000ff;stroke:#0000ff;" x="343.438905" xlink:href="#ma0a4d27dcd" y="360.950418"/>
     <use style="fill:#0000ff;stroke:#0000ff;" x="343.818955" xlink:href="#ma0a4d27dcd" y="361.028172"/>
     <use style="fill:#0000ff;stroke:#0000ff;" x="356.326125" xlink:href="#ma0a4d27dcd" y="362.859377"/>
     <use style="fill:#0000ff;stroke:#0000ff;" x="359.698796" xlink:href="#ma0a4d27dcd" y="363.111411"/>
     <use style="fill:#0000ff;stroke:#0000ff;" x="359.897978" xlink:href="#ma0a4d27dcd" y="363.123084"/>
     <use style="fill:#0000ff;stroke:#0000ff;" x="360.86257" xlink:href="#ma0a4d27dcd" y="363.174545"/>
     <use style="fill:#0000ff;stroke:#0000ff;" x="377.042682" xlink:href="#ma0a4d27dcd" y="362.785527"/>
     <use style="fill:#0000ff;stroke:#0000ff;" x="379.969651" xlink:href="#ma0a4d27dcd" y="362.462695"/>
     <use style="fill:#0000ff;stroke:#0000ff;" x="382.09311" xlink:href="#ma0a4d27dcd" y="362.180076"/>
     <use style="fill:#0000ff;stroke:#0000ff;" x="392.869791" xlink:href="#ma0a4d27dcd" y="360.118204"/>
     <use style="fill:#0000ff;stroke:#0000ff;" x="393.030029" xlink:href="#ma0a4d27dcd" y="360.079635"/>
     <use style="fill:#0000ff;stroke:#0000ff;" x="397.987946" xlink:href="#ma0a4d27dcd" y="358.771725"/>
     <use style="fill:#0000ff;stroke:#0000ff;" x="398.967641" xlink:href="#ma0a4d27dcd" y="358.48702"/>
     <use style="fill:#0000ff;stroke:#0000ff;" x="415.016689" xlink:href="#ma0a4d27dcd" y="352.589378"/>
     <use style="fill:#0000ff;stroke:#0000ff;" x="421.113381" xlink:href="#ma0a4d27dcd" y="349.739507"/>
     <use style="fill:#0000ff;stroke:#0000ff;" x="435.22724" xlink:href="#ma0a4d27dcd" y="341.854388"/>
     <use style="fill:#0000ff;stroke:#0000ff;" x="446.995152" xlink:href="#ma0a4d27dcd" y="333.905004"/>
     <use style="fill:#0000ff;stroke:#0000ff;" x="479.213539" xlink:href="#ma0a4d27dcd" y="305.743726"/>
     <use style="fill:#0000ff;stroke:#0000ff;" x="487.32069" xlink:href="#ma0a4d27dcd" y="297.181675"/>
     <use style="fill:#0000ff;stroke:#0000ff;" x="491.643706" xlink:href="#ma0a4d27dcd" y="292.373518"/>
     <use style="fill:#0000ff;stroke:#0000ff;" x="496.278861" xlink:href="#ma0a4d27dcd" y="287.030758"/>
     <use style="fill:#0000ff;stroke:#0000ff;" x="496.571997" xlink:href="#ma0a4d27dcd" y="286.686346"/>
     <use style="fill:#0000ff;stroke:#0000ff;" x="503.406403" xlink:href="#ma0a4d27dcd" y="278.436656"/>
     <use style="fill:#0000ff;stroke:#0000ff;" x="505.602128" xlink:href="#ma0a4d27dcd" y="275.696723"/>
     <use style="fill:#0000ff;stroke:#0000ff;" x="510.236693" xlink:href="#ma0a4d27dcd" y="269.770601"/>
     <use style="fill:#0000ff;stroke:#0000ff;" x="520.634035" xlink:href="#ma0a4d27dcd" y="255.770209"/>
     <use style="fill:#0000ff;stroke:#0000ff;" x="523.204487" xlink:href="#ma0a4d27dcd" y="252.15853"/>
     <use style="fill:#0000ff;stroke:#0000ff;" x="525.592447" xlink:href="#ma0a4d27dcd" y="248.749819"/>
     <use style="fill:#0000ff;stroke:#0000ff;" x="529.822054" xlink:href="#ma0a4d27dcd" y="242.585884"/>
     <use style="fill:#0000ff;stroke:#0000ff;" x="531.263632" xlink:href="#ma0a4d27dcd" y="240.448124"/>
     <use style="fill:#0000ff;stroke:#0000ff;" x="534.860079" xlink:href="#ma0a4d27dcd" y="235.033045"/>
     <use style="fill:#0000ff;stroke:#0000ff;" x="535.120711" xlink:href="#ma0a4d27dcd" y="234.63608"/>
     <use style="fill:#0000ff;stroke:#0000ff;" x="535.416316" xlink:href="#ma0a4d27dcd" y="234.185104"/>
     <use style="fill:#0000ff;stroke:#0000ff;" x="565.534794" xlink:href="#ma0a4d27dcd" y="184.101395"/>
     <use style="fill:#0000ff;stroke:#0000ff;" x="567.611806" xlink:href="#ma0a4d27dcd" y="180.345696"/>
     <use style="fill:#0000ff;stroke:#0000ff;" x="583.980495" xlink:href="#ma0a4d27dcd" y="149.384445"/>
     <use style="fill:#0000ff;stroke:#0000ff;" x="589.652344" xlink:href="#ma0a4d27dcd" y="138.091872"/>
     <use style="fill:#0000ff;stroke:#0000ff;" x="592.825529" xlink:href="#ma0a4d27dcd" y="131.647404"/>
     <use style="fill:#0000ff;stroke:#0000ff;" x="593.575647" xlink:href="#ma0a4d27dcd" y="130.110675"/>
     <use style="fill:#0000ff;stroke:#0000ff;" x="599.244498" xlink:href="#ma0a4d27dcd" y="118.333081"/>
     <use style="fill:#0000ff;stroke:#0000ff;" x="602.753285" xlink:href="#ma0a4d27dcd" y="110.897841"/>
     <use style="fill:#0000ff;stroke:#0000ff;" x="607.335582" xlink:href="#ma0a4d27dcd" y="101.020445"/>
     <use style="fill:#0000ff;stroke:#0000ff;" x="609.705361" xlink:href="#ma0a4d27dcd" y="95.8379"/>
     <use style="fill:#0000ff;stroke:#0000ff;" x="611.35158" xlink:href="#ma0a4d27dcd" y="92.207855"/>
     <use style="fill:#0000ff;stroke:#0000ff;" x="612.982224" xlink:href="#ma0a4d27dcd" y="88.588074"/>
     <use style="fill:#0000ff;stroke:#0000ff;" x="622.636364" xlink:href="#ma0a4d27dcd" y="66.665455"/>
    </g>
   </g>
   <g id="patch_3">
    <path d="M 90 378 
L 90 51.84 
" style="fill:none;stroke:#000000;stroke-linecap:square;stroke-linejoin:miter;stroke-width:0.8;"/>
   </g>
   <g id="patch_4">
    <path d="M 648 378 
L 648 51.84 
" style="fill:none;stroke:#000000;stroke-linecap:square;stroke-linejoin:miter;stroke-width:0.8;"/>
   </g>
   <g id="patch_5">
    <path d="M 90 378 
L 648 378 
" style="fill:none;stroke:#000000;stroke-linecap:square;stroke-linejoin:miter;stroke-width:0.8;"/>
   </g>
   <g id="patch_6">
    <path d="M 90 51.84 
L 648 51.84 
" style="fill:none;stroke:#000000;stroke-linecap:square;stroke-linejoin:miter;stroke-width:0.8;"/>
   </g>
   <g id="text_18">
    <!-- Функция -->
    <defs>
     <path d="M 38.140625 57.90625 
Q 27.546875 56.9375 21.921875 51.953125 
Q 16.3125 46.96875 16.3125 37.359375 
Q 16.3125 27.734375 21.921875 22.78125 
Q 27.546875 17.828125 38.140625 16.84375 
z
M 48.046875 16.84375 
Q 58.640625 17.828125 64.203125 22.78125 
Q 69.78125 27.734375 69.78125 37.359375 
Q 69.78125 46.96875 64.203125 51.953125 
Q 58.640625 56.9375 48.046875 57.90625 
z
M 38.140625 8.6875 
Q 22.65625 9.8125 14.28125 17.109375 
Q 5.90625 24.421875 5.90625 37.359375 
Q 5.90625 50.296875 14.28125 57.640625 
Q 22.65625 64.984375 38.140625 66.109375 
L 38.140625 72.90625 
L 48.046875 72.90625 
L 48.046875 66.109375 
Q 63.53125 64.984375 71.84375 57.6875 
Q 80.171875 50.390625 80.171875 37.359375 
Q 80.171875 24.421875 71.84375 17.109375 
Q 63.53125 9.8125 48.046875 8.6875 
L 48.046875 0 
L 38.140625 0 
z
" id="DejaVuSans-1060"/>
     <path d="M 32.171875 -5.078125 
Q 28.375 -14.84375 24.75 -17.8125 
Q 21.140625 -20.796875 15.09375 -20.796875 
L 7.90625 -20.796875 
L 7.90625 -13.28125 
L 13.1875 -13.28125 
Q 16.890625 -13.28125 18.9375 -11.515625 
Q 21 -9.765625 23.484375 -3.21875 
L 25.09375 0.875 
L 2.984375 54.6875 
L 12.5 54.6875 
L 29.59375 11.921875 
L 46.6875 54.6875 
L 56.203125 54.6875 
z
" id="DejaVuSans-1091"/>
     <path d="M 9.078125 54.6875 
L 18.109375 54.6875 
L 18.109375 32.375 
L 47.265625 32.375 
L 47.265625 54.6875 
L 56.296875 54.6875 
L 56.296875 0 
L 47.265625 0 
L 47.265625 25.203125 
L 18.109375 25.203125 
L 18.109375 0 
L 9.078125 0 
z
" id="DejaVuSans-1085"/>
     <path d="M 9.078125 54.6875 
L 18.015625 54.6875 
L 18.015625 29 
L 43.359375 54.6875 
L 54.390625 54.6875 
L 33.5 33.546875 
L 57.078125 0 
L 47.015625 0 
L 27.640625 27.59375 
L 18.015625 17.828125 
L 18.015625 0 
L 9.078125 0 
z
" id="DejaVuSans-1082"/>
     <path d="M 56.296875 0 
L 9.078125 0 
L 9.078125 54.6875 
L 18.109375 54.6875 
L 18.109375 7.171875 
L 47.265625 7.171875 
L 47.265625 54.6875 
L 56.296875 54.6875 
L 56.296875 7.171875 
L 63.484375 7.171875 
L 63.484375 -13.8125 
L 56.296875 -13.8125 
z
" id="DejaVuSans-1094"/>
     <path d="M 55.90625 54.6875 
L 55.90625 0 
L 46.96875 0 
L 46.96875 43.890625 
L 20.609375 0 
L 9.078125 0 
L 9.078125 54.6875 
L 18.015625 54.6875 
L 18.015625 10.890625 
L 44.34375 54.6875 
z
" id="DejaVuSans-1080"/>
     <path d="M 18.453125 38.921875 
Q 18.453125 34.859375 21.578125 32.5625 
Q 24.703125 30.28125 30.515625 30.28125 
L 42.625 30.28125 
L 42.625 47.515625 
L 30.515625 47.515625 
Q 24.703125 47.515625 21.578125 45.265625 
Q 18.453125 43.015625 18.453125 38.921875 
z
M 5.671875 0 
L 22.359375 23.96875 
Q 16.703125 25.25 12.9375 28.59375 
Q 9.1875 31.9375 9.1875 38.921875 
Q 9.1875 46.828125 14.421875 50.75 
Q 19.671875 54.6875 30.28125 54.6875 
L 51.65625 54.6875 
L 51.65625 0 
L 42.625 0 
L 42.625 23.09375 
L 31.453125 23.09375 
L 15.328125 0 
z
" id="DejaVuSans-1103"/>
    </defs>
    <g transform="translate(341.145 45.84)scale(0.12 -0.12)">
     <use xlink:href="#DejaVuSans-1060"/>
     <use x="86.083984" xlink:href="#DejaVuSans-1091"/>
     <use x="145.263672" xlink:href="#DejaVuSans-1085"/>
     <use x="210.644531" xlink:href="#DejaVuSans-1082"/>
     <use x="271.044922" xlink:href="#DejaVuSans-1094"/>
     <use x="339.111328" xlink:href="#DejaVuSans-1080"/>
     <use x="404.101562" xlink:href="#DejaVuSans-1103"/>
    </g>
   </g>
   <g id="legend_1">
    <g id="patch_7">
     <path d="M 97 74.688437 
L 221.660937 74.688437 
Q 223.660937 74.688437 223.660937 72.688437 
L 223.660937 58.84 
Q 223.660937 56.84 221.660937 56.84 
L 97 56.84 
Q 95 56.84 95 58.84 
L 95 72.688437 
Q 95 74.688437 97 74.688437 
z
" style="fill:#ffffff;opacity:0.8;stroke:#cccccc;stroke-linejoin:miter;"/>
    </g>
    <g id="line2d_32"/>
    <g id="line2d_33">
     <g>
      <use style="fill:#0000ff;stroke:#0000ff;" x="109" xlink:href="#ma0a4d27dcd" y="65.10875"/>
     </g>
    </g>
    <g id="text_19">
     <!-- данные обучения -->
     <defs>
      <path d="M 21.625 7.171875 
L 47.703125 7.171875 
L 47.703125 47.515625 
L 28.8125 47.515625 
L 28.8125 40.671875 
Q 28.8125 20.5625 23.046875 9.8125 
z
M 8.59375 7.171875 
Q 13.03125 9.125 14.984375 13.28125 
Q 19.78125 23.578125 19.78125 44.34375 
L 19.78125 54.6875 
L 56.734375 54.6875 
L 56.734375 7.171875 
L 63.921875 7.171875 
L 63.921875 -13.8125 
L 56.734375 -13.8125 
L 56.734375 0 
L 12.40625 0 
L 12.40625 -13.8125 
L 5.21875 -13.8125 
L 5.21875 7.171875 
z
" id="DejaVuSans-1076"/>
      <path d="M 34.28125 27.484375 
Q 23.390625 27.484375 19.1875 25 
Q 14.984375 22.515625 14.984375 16.5 
Q 14.984375 11.71875 18.140625 8.90625 
Q 21.296875 6.109375 26.703125 6.109375 
Q 34.1875 6.109375 38.703125 11.40625 
Q 43.21875 16.703125 43.21875 25.484375 
L 43.21875 27.484375 
z
M 52.203125 31.203125 
L 52.203125 0 
L 43.21875 0 
L 43.21875 8.296875 
Q 40.140625 3.328125 35.546875 0.953125 
Q 30.953125 -1.421875 24.3125 -1.421875 
Q 15.921875 -1.421875 10.953125 3.296875 
Q 6 8.015625 6 15.921875 
Q 6 25.140625 12.171875 29.828125 
Q 18.359375 34.515625 30.609375 34.515625 
L 43.21875 34.515625 
L 43.21875 35.40625 
Q 43.21875 41.609375 39.140625 45 
Q 35.0625 48.390625 27.6875 48.390625 
Q 23 48.390625 18.546875 47.265625 
Q 14.109375 46.140625 10.015625 43.890625 
L 10.015625 52.203125 
Q 14.9375 54.109375 19.578125 55.046875 
Q 24.21875 56 28.609375 56 
Q 40.484375 56 46.34375 49.84375 
Q 52.203125 43.703125 52.203125 31.203125 
z
" id="DejaVuSans-1072"/>
      <path d="M 61.046875 54.6875 
L 70.03125 54.6875 
L 70.03125 0 
L 61.046875 0 
z
M 65.546875 56 
z
M 43.453125 16.21875 
Q 43.453125 20.609375 40.25 22.90625 
Q 37.0625 25.203125 30.90625 25.203125 
L 18.109375 25.203125 
L 18.109375 7.171875 
L 30.90625 7.171875 
Q 37.0625 7.171875 40.25 9.484375 
Q 43.453125 11.8125 43.453125 16.21875 
z
M 9.078125 54.6875 
L 18.109375 54.6875 
L 18.109375 32.375 
L 31.296875 32.375 
Q 41.75 32.375 47.390625 28.390625 
Q 53.03125 24.421875 53.03125 16.21875 
Q 53.03125 8.015625 47.390625 4 
Q 41.75 0 31.296875 0 
L 9.078125 0 
z
" id="DejaVuSans-1099"/>
      <path d="M 56.203125 29.59375 
L 56.203125 25.203125 
L 14.890625 25.203125 
Q 15.484375 15.921875 20.484375 11.0625 
Q 25.484375 6.203125 34.421875 6.203125 
Q 39.59375 6.203125 44.453125 7.46875 
Q 49.3125 8.734375 54.109375 11.28125 
L 54.109375 2.78125 
Q 49.265625 0.734375 44.1875 -0.34375 
Q 39.109375 -1.421875 33.890625 -1.421875 
Q 20.796875 -1.421875 13.15625 6.1875 
Q 5.515625 13.8125 5.515625 26.8125 
Q 5.515625 40.234375 12.765625 48.109375 
Q 20.015625 56 32.328125 56 
Q 43.359375 56 49.78125 48.890625 
Q 56.203125 41.796875 56.203125 29.59375 
z
M 47.21875 32.234375 
Q 47.125 39.59375 43.09375 43.984375 
Q 39.0625 48.390625 32.421875 48.390625 
Q 24.90625 48.390625 20.390625 44.140625 
Q 15.875 39.890625 15.1875 32.171875 
z
" id="DejaVuSans-1077"/>
      <path id="DejaVuSans-32"/>
      <path d="M 30.609375 48.390625 
Q 23.390625 48.390625 19.1875 42.75 
Q 14.984375 37.109375 14.984375 27.296875 
Q 14.984375 17.484375 19.15625 11.84375 
Q 23.34375 6.203125 30.609375 6.203125 
Q 37.796875 6.203125 41.984375 11.859375 
Q 46.1875 17.53125 46.1875 27.296875 
Q 46.1875 37.015625 41.984375 42.703125 
Q 37.796875 48.390625 30.609375 48.390625 
z
M 30.609375 56 
Q 42.328125 56 49.015625 48.375 
Q 55.71875 40.765625 55.71875 27.296875 
Q 55.71875 13.875 49.015625 6.21875 
Q 42.328125 -1.421875 30.609375 -1.421875 
Q 18.84375 -1.421875 12.171875 6.21875 
Q 5.515625 13.875 5.515625 27.296875 
Q 5.515625 40.765625 12.171875 48.375 
Q 18.84375 56 30.609375 56 
z
" id="DejaVuSans-1086"/>
      <path d="M 31.109375 56 
Q 42.828125 56 49.515625 48.375 
Q 56.203125 40.765625 56.203125 27.296875 
Q 56.203125 13.875 49.515625 6.21875 
Q 42.828125 -1.421875 31.109375 -1.421875 
Q 19.34375 -1.421875 12.84375 6 
Q 6.34375 13.421875 6 27.296875 
L 5.71875 38.484375 
Q 5.46875 44.28125 5.46875 46.296875 
Q 5.46875 54.109375 8.296875 59.859375 
Q 12.75 68.890625 20.4375 72.796875 
Q 28.125 76.703125 41.015625 76.8125 
Q 46.96875 76.859375 49.609375 77.6875 
L 52.09375 70.5625 
Q 49.703125 69.578125 47.515625 69.53125 
L 35.296875 68.703125 
Q 29.15625 68.265625 25.4375 66.109375 
Q 15.71875 60.40625 14.796875 52.9375 
L 14.453125 50.203125 
Q 20.796875 56 31.109375 56 
z
M 31.109375 48.390625 
Q 23.875 48.390625 19.671875 42.75 
Q 15.484375 37.109375 15.484375 27.296875 
Q 15.484375 17.484375 19.65625 11.84375 
Q 23.828125 6.203125 31.109375 6.203125 
Q 38.28125 6.203125 42.484375 11.859375 
Q 46.6875 17.53125 46.6875 27.296875 
Q 46.6875 37.015625 42.484375 42.703125 
Q 38.28125 48.390625 31.109375 48.390625 
z
" id="DejaVuSans-1073"/>
      <path d="M 41.015625 0 
L 41.015625 23 
L 24.265625 23 
Q 16.796875 23 11.8125 27.640625 
Q 7.328125 31.84375 7.328125 40.828125 
L 7.328125 54.6875 
L 16.3125 54.6875 
L 16.3125 41.65625 
Q 16.3125 35.9375 18.84375 33.0625 
Q 21.4375 30.171875 26.515625 30.171875 
L 41.015625 30.171875 
L 41.015625 54.6875 
L 50 54.6875 
L 50 0 
z
" id="DejaVuSans-1095"/>
     </defs>
     <g transform="translate(127 68.60875)scale(0.1 -0.1)">
      <use xlink:href="#DejaVuSans-1076"/>
      <use x="69.140625" xlink:href="#DejaVuSans-1072"/>
      <use x="130.419922" xlink:href="#DejaVuSans-1085"/>
      <use x="195.800781" xlink:href="#DejaVuSans-1085"/>
      <use x="261.181641" xlink:href="#DejaVuSans-1099"/>
      <use x="340.136719" xlink:href="#DejaVuSans-1077"/>
      <use x="401.660156" xlink:href="#DejaVuSans-32"/>
      <use x="433.447266" xlink:href="#DejaVuSans-1086"/>
      <use x="494.628906" xlink:href="#DejaVuSans-1073"/>
      <use x="556.298828" xlink:href="#DejaVuSans-1091"/>
      <use x="615.478516" xlink:href="#DejaVuSans-1095"/>
      <use x="674.560547" xlink:href="#DejaVuSans-1077"/>
      <use x="736.083984" xlink:href="#DejaVuSans-1085"/>
      <use x="801.464844" xlink:href="#DejaVuSans-1080"/>
      <use x="866.455078" xlink:href="#DejaVuSans-1103"/>
     </g>
    </g>
   </g>
  </g>
 </g>
 <defs>
  <clipPath id="p3720cb4c6b">
   <rect height="326.16" width="558" x="90" y="51.84"/>
  </clipPath>
 </defs>
</svg>
