<?xml version="1.0" encoding="utf-8" standalone="no"?>
<!DOCTYPE svg PUBLIC "-//W3C//DTD SVG 1.1//EN"
  "http://www.w3.org/Graphics/SVG/1.1/DTD/svg11.dtd">
<!-- Created with matplotlib (https://matplotlib.org/) -->
<svg height="432pt" version="1.1" viewBox="0 0 720 432" width="720pt" xmlns="http://www.w3.org/2000/svg" xmlns:xlink="http://www.w3.org/1999/xlink">
 <defs>
  <style type="text/css">
*{stroke-linecap:butt;stroke-linejoin:round;}
  </style>
 </defs>
 <g id="figure_1">
  <g id="patch_1">
   <path d="M 0 432 
L 720 432 
L 720 0 
L 0 0 
z
" style="fill:#ffffff;"/>
  </g>
  <g id="axes_1">
   <g id="patch_2">
    <path d="M 90 378 
L 648 378 
L 648 51.84 
L 90 51.84 
z
" style="fill:#ffffff;"/>
   </g>
   <g id="matplotlib.axis_1">
    <g id="xtick_1">
     <g id="line2d_1">
      <path clip-path="url(#p3701ed12cd)" d="M 113.923504 378 
L 113.923504 51.84 
" style="fill:none;stroke:#b0b0b0;stroke-linecap:square;stroke-width:0.8;"/>
     </g>
     <g id="line2d_2">
      <defs>
       <path d="M 0 0 
L 0 3.5 
" id="m52e86d4bb6" style="stroke:#000000;stroke-width:0.8;"/>
      </defs>
      <g>
       <use style="stroke:#000000;stroke-width:0.8;" x="113.923504" xlink:href="#m52e86d4bb6" y="378"/>
      </g>
     </g>
     <g id="text_1">
      <!-- −10.0 -->
      <defs>
       <path d="M 10.59375 35.5 
L 73.1875 35.5 
L 73.1875 27.203125 
L 10.59375 27.203125 
z
" id="DejaVuSans-8722"/>
       <path d="M 12.40625 8.296875 
L 28.515625 8.296875 
L 28.515625 63.921875 
L 10.984375 60.40625 
L 10.984375 69.390625 
L 28.421875 72.90625 
L 38.28125 72.90625 
L 38.28125 8.296875 
L 54.390625 8.296875 
L 54.390625 0 
L 12.40625 0 
z
" id="DejaVuSans-49"/>
       <path d="M 31.78125 66.40625 
Q 24.171875 66.40625 20.328125 58.90625 
Q 16.5 51.421875 16.5 36.375 
Q 16.5 21.390625 20.328125 13.890625 
Q 24.171875 6.390625 31.78125 6.390625 
Q 39.453125 6.390625 43.28125 13.890625 
Q 47.125 21.390625 47.125 36.375 
Q 47.125 51.421875 43.28125 58.90625 
Q 39.453125 66.40625 31.78125 66.40625 
z
M 31.78125 74.21875 
Q 44.046875 74.21875 50.515625 64.515625 
Q 56.984375 54.828125 56.984375 36.375 
Q 56.984375 17.96875 50.515625 8.265625 
Q 44.046875 -1.421875 31.78125 -1.421875 
Q 19.53125 -1.421875 13.0625 8.265625 
Q 6.59375 17.96875 6.59375 36.375 
Q 6.59375 54.828125 13.0625 64.515625 
Q 19.53125 74.21875 31.78125 74.21875 
z
" id="DejaVuSans-48"/>
       <path d="M 10.6875 12.40625 
L 21 12.40625 
L 21 0 
L 10.6875 0 
z
" id="DejaVuSans-46"/>
      </defs>
      <g transform="translate(98.600848 392.598437)scale(0.1 -0.1)">
       <use xlink:href="#DejaVuSans-8722"/>
       <use x="83.789062" xlink:href="#DejaVuSans-49"/>
       <use x="147.412109" xlink:href="#DejaVuSans-48"/>
       <use x="211.035156" xlink:href="#DejaVuSans-46"/>
       <use x="242.822266" xlink:href="#DejaVuSans-48"/>
      </g>
     </g>
    </g>
    <g id="xtick_2">
     <g id="line2d_3">
      <path clip-path="url(#p3701ed12cd)" d="M 178.827736 378 
L 178.827736 51.84 
" style="fill:none;stroke:#b0b0b0;stroke-linecap:square;stroke-width:0.8;"/>
     </g>
     <g id="line2d_4">
      <g>
       <use style="stroke:#000000;stroke-width:0.8;" x="178.827736" xlink:href="#m52e86d4bb6" y="378"/>
      </g>
     </g>
     <g id="text_2">
      <!-- −7.5 -->
      <defs>
       <path d="M 8.203125 72.90625 
L 55.078125 72.90625 
L 55.078125 68.703125 
L 28.609375 0 
L 18.3125 0 
L 43.21875 64.59375 
L 8.203125 64.59375 
z
" id="DejaVuSans-55"/>
       <path d="M 10.796875 72.90625 
L 49.515625 72.90625 
L 49.515625 64.59375 
L 19.828125 64.59375 
L 19.828125 46.734375 
Q 21.96875 47.46875 24.109375 47.828125 
Q 26.265625 48.1875 28.421875 48.1875 
Q 40.625 48.1875 47.75 41.5 
Q 54.890625 34.8125 54.890625 23.390625 
Q 54.890625 11.625 47.5625 5.09375 
Q 40.234375 -1.421875 26.90625 -1.421875 
Q 22.3125 -1.421875 17.546875 -0.640625 
Q 12.796875 0.140625 7.71875 1.703125 
L 7.71875 11.625 
Q 12.109375 9.234375 16.796875 8.0625 
Q 21.484375 6.890625 26.703125 6.890625 
Q 35.15625 6.890625 40.078125 11.328125 
Q 45.015625 15.765625 45.015625 23.390625 
Q 45.015625 31 40.078125 35.4375 
Q 35.15625 39.890625 26.703125 39.890625 
Q 22.75 39.890625 18.8125 39.015625 
Q 14.890625 38.140625 10.796875 36.28125 
z
" id="DejaVuSans-53"/>
      </defs>
      <g transform="translate(166.686329 392.598437)scale(0.1 -0.1)">
       <use xlink:href="#DejaVuSans-8722"/>
       <use x="83.789062" xlink:href="#DejaVuSans-55"/>
       <use x="147.412109" xlink:href="#DejaVuSans-46"/>
       <use x="179.199219" xlink:href="#DejaVuSans-53"/>
      </g>
     </g>
    </g>
    <g id="xtick_3">
     <g id="line2d_5">
      <path clip-path="url(#p3701ed12cd)" d="M 243.731967 378 
L 243.731967 51.84 
" style="fill:none;stroke:#b0b0b0;stroke-linecap:square;stroke-width:0.8;"/>
     </g>
     <g id="line2d_6">
      <g>
       <use style="stroke:#000000;stroke-width:0.8;" x="243.731967" xlink:href="#m52e86d4bb6" y="378"/>
      </g>
     </g>
     <g id="text_3">
      <!-- −5.0 -->
      <g transform="translate(231.59056 392.598437)scale(0.1 -0.1)">
       <use xlink:href="#DejaVuSans-8722"/>
       <use x="83.789062" xlink:href="#DejaVuSans-53"/>
       <use x="147.412109" xlink:href="#DejaVuSans-46"/>
       <use x="179.199219" xlink:href="#DejaVuSans-48"/>
      </g>
     </g>
    </g>
    <g id="xtick_4">
     <g id="line2d_7">
      <path clip-path="url(#p3701ed12cd)" d="M 308.636198 378 
L 308.636198 51.84 
" style="fill:none;stroke:#b0b0b0;stroke-linecap:square;stroke-width:0.8;"/>
     </g>
     <g id="line2d_8">
      <g>
       <use style="stroke:#000000;stroke-width:0.8;" x="308.636198" xlink:href="#m52e86d4bb6" y="378"/>
      </g>
     </g>
     <g id="text_4">
      <!-- −2.5 -->
      <defs>
       <path d="M 19.1875 8.296875 
L 53.609375 8.296875 
L 53.609375 0 
L 7.328125 0 
L 7.328125 8.296875 
Q 12.9375 14.109375 22.625 23.890625 
Q 32.328125 33.6875 34.8125 36.53125 
Q 39.546875 41.84375 41.421875 45.53125 
Q 43.3125 49.21875 43.3125 52.78125 
Q 43.3125 58.59375 39.234375 62.25 
Q 35.15625 65.921875 28.609375 65.921875 
Q 23.96875 65.921875 18.8125 64.3125 
Q 13.671875 62.703125 7.8125 59.421875 
L 7.8125 69.390625 
Q 13.765625 71.78125 18.9375 73 
Q 24.125 74.21875 28.421875 74.21875 
Q 39.75 74.21875 46.484375 68.546875 
Q 53.21875 62.890625 53.21875 53.421875 
Q 53.21875 48.921875 51.53125 44.890625 
Q 49.859375 40.875 45.40625 35.40625 
Q 44.1875 33.984375 37.640625 27.21875 
Q 31.109375 20.453125 19.1875 8.296875 
z
" id="DejaVuSans-50"/>
      </defs>
      <g transform="translate(296.494792 392.598437)scale(0.1 -0.1)">
       <use xlink:href="#DejaVuSans-8722"/>
       <use x="83.789062" xlink:href="#DejaVuSans-50"/>
       <use x="147.412109" xlink:href="#DejaVuSans-46"/>
       <use x="179.199219" xlink:href="#DejaVuSans-53"/>
      </g>
     </g>
    </g>
    <g id="xtick_5">
     <g id="line2d_9">
      <path clip-path="url(#p3701ed12cd)" d="M 373.540429 378 
L 373.540429 51.84 
" style="fill:none;stroke:#b0b0b0;stroke-linecap:square;stroke-width:0.8;"/>
     </g>
     <g id="line2d_10">
      <g>
       <use style="stroke:#000000;stroke-width:0.8;" x="373.540429" xlink:href="#m52e86d4bb6" y="378"/>
      </g>
     </g>
     <g id="text_5">
      <!-- 0.0 -->
      <g transform="translate(365.588867 392.598437)scale(0.1 -0.1)">
       <use xlink:href="#DejaVuSans-48"/>
       <use x="63.623047" xlink:href="#DejaVuSans-46"/>
       <use x="95.410156" xlink:href="#DejaVuSans-48"/>
      </g>
     </g>
    </g>
    <g id="xtick_6">
     <g id="line2d_11">
      <path clip-path="url(#p3701ed12cd)" d="M 438.44466 378 
L 438.44466 51.84 
" style="fill:none;stroke:#b0b0b0;stroke-linecap:square;stroke-width:0.8;"/>
     </g>
     <g id="line2d_12">
      <g>
       <use style="stroke:#000000;stroke-width:0.8;" x="438.44466" xlink:href="#m52e86d4bb6" y="378"/>
      </g>
     </g>
     <g id="text_6">
      <!-- 2.5 -->
      <g transform="translate(430.493098 392.598437)scale(0.1 -0.1)">
       <use xlink:href="#DejaVuSans-50"/>
       <use x="63.623047" xlink:href="#DejaVuSans-46"/>
       <use x="95.410156" xlink:href="#DejaVuSans-53"/>
      </g>
     </g>
    </g>
    <g id="xtick_7">
     <g id="line2d_13">
      <path clip-path="url(#p3701ed12cd)" d="M 503.348891 378 
L 503.348891 51.84 
" style="fill:none;stroke:#b0b0b0;stroke-linecap:square;stroke-width:0.8;"/>
     </g>
     <g id="line2d_14">
      <g>
       <use style="stroke:#000000;stroke-width:0.8;" x="503.348891" xlink:href="#m52e86d4bb6" y="378"/>
      </g>
     </g>
     <g id="text_7">
      <!-- 5.0 -->
      <g transform="translate(495.397329 392.598437)scale(0.1 -0.1)">
       <use xlink:href="#DejaVuSans-53"/>
       <use x="63.623047" xlink:href="#DejaVuSans-46"/>
       <use x="95.410156" xlink:href="#DejaVuSans-48"/>
      </g>
     </g>
    </g>
    <g id="xtick_8">
     <g id="line2d_15">
      <path clip-path="url(#p3701ed12cd)" d="M 568.253123 378 
L 568.253123 51.84 
" style="fill:none;stroke:#b0b0b0;stroke-linecap:square;stroke-width:0.8;"/>
     </g>
     <g id="line2d_16">
      <g>
       <use style="stroke:#000000;stroke-width:0.8;" x="568.253123" xlink:href="#m52e86d4bb6" y="378"/>
      </g>
     </g>
     <g id="text_8">
      <!-- 7.5 -->
      <g transform="translate(560.30156 392.598437)scale(0.1 -0.1)">
       <use xlink:href="#DejaVuSans-55"/>
       <use x="63.623047" xlink:href="#DejaVuSans-46"/>
       <use x="95.410156" xlink:href="#DejaVuSans-53"/>
      </g>
     </g>
    </g>
    <g id="xtick_9">
     <g id="line2d_17">
      <path clip-path="url(#p3701ed12cd)" d="M 633.157354 378 
L 633.157354 51.84 
" style="fill:none;stroke:#b0b0b0;stroke-linecap:square;stroke-width:0.8;"/>
     </g>
     <g id="line2d_18">
      <g>
       <use style="stroke:#000000;stroke-width:0.8;" x="633.157354" xlink:href="#m52e86d4bb6" y="378"/>
      </g>
     </g>
     <g id="text_9">
      <!-- 10.0 -->
      <g transform="translate(622.024541 392.598437)scale(0.1 -0.1)">
       <use xlink:href="#DejaVuSans-49"/>
       <use x="63.623047" xlink:href="#DejaVuSans-48"/>
       <use x="127.246094" xlink:href="#DejaVuSans-46"/>
       <use x="159.033203" xlink:href="#DejaVuSans-48"/>
      </g>
     </g>
    </g>
    <g id="text_10">
     <!-- $x$ -->
     <defs>
      <path d="M 60.015625 54.6875 
L 34.90625 27.875 
L 50.296875 0 
L 39.984375 0 
L 28.421875 21.6875 
L 8.296875 0 
L -2.59375 0 
L 24.3125 28.8125 
L 10.015625 54.6875 
L 20.3125 54.6875 
L 30.8125 34.90625 
L 49.125 54.6875 
z
" id="DejaVuSans-Oblique-120"/>
     </defs>
     <g transform="translate(366 406.276563)scale(0.1 -0.1)">
      <use transform="translate(0 0.3125)" xlink:href="#DejaVuSans-Oblique-120"/>
     </g>
    </g>
   </g>
   <g id="matplotlib.axis_2">
    <g id="ytick_1">
     <g id="line2d_19">
      <path clip-path="url(#p3701ed12cd)" d="M 90 363.190567 
L 648 363.190567 
" style="fill:none;stroke:#b0b0b0;stroke-linecap:square;stroke-width:0.8;"/>
     </g>
     <g id="line2d_20">
      <defs>
       <path d="M 0 0 
L -3.5 0 
" id="m5be6c2be99" style="stroke:#000000;stroke-width:0.8;"/>
      </defs>
      <g>
       <use style="stroke:#000000;stroke-width:0.8;" x="90" xlink:href="#m5be6c2be99" y="363.190567"/>
      </g>
     </g>
     <g id="text_11">
      <!-- 0 -->
      <g transform="translate(76.6375 366.989786)scale(0.1 -0.1)">
       <use xlink:href="#DejaVuSans-48"/>
      </g>
     </g>
    </g>
    <g id="ytick_2">
     <g id="line2d_21">
      <path clip-path="url(#p3701ed12cd)" d="M 90 303.222081 
L 648 303.222081 
" style="fill:none;stroke:#b0b0b0;stroke-linecap:square;stroke-width:0.8;"/>
     </g>
     <g id="line2d_22">
      <g>
       <use style="stroke:#000000;stroke-width:0.8;" x="90" xlink:href="#m5be6c2be99" y="303.222081"/>
      </g>
     </g>
     <g id="text_12">
      <!-- 20 -->
      <g transform="translate(70.275 307.0213)scale(0.1 -0.1)">
       <use xlink:href="#DejaVuSans-50"/>
       <use x="63.623047" xlink:href="#DejaVuSans-48"/>
      </g>
     </g>
    </g>
    <g id="ytick_3">
     <g id="line2d_23">
      <path clip-path="url(#p3701ed12cd)" d="M 90 243.253595 
L 648 243.253595 
" style="fill:none;stroke:#b0b0b0;stroke-linecap:square;stroke-width:0.8;"/>
     </g>
     <g id="line2d_24">
      <g>
       <use style="stroke:#000000;stroke-width:0.8;" x="90" xlink:href="#m5be6c2be99" y="243.253595"/>
      </g>
     </g>
     <g id="text_13">
      <!-- 40 -->
      <defs>
       <path d="M 37.796875 64.3125 
L 12.890625 25.390625 
L 37.796875 25.390625 
z
M 35.203125 72.90625 
L 47.609375 72.90625 
L 47.609375 25.390625 
L 58.015625 25.390625 
L 58.015625 17.1875 
L 47.609375 17.1875 
L 47.609375 0 
L 37.796875 0 
L 37.796875 17.1875 
L 4.890625 17.1875 
L 4.890625 26.703125 
z
" id="DejaVuSans-52"/>
      </defs>
      <g transform="translate(70.275 247.052814)scale(0.1 -0.1)">
       <use xlink:href="#DejaVuSans-52"/>
       <use x="63.623047" xlink:href="#DejaVuSans-48"/>
      </g>
     </g>
    </g>
    <g id="ytick_4">
     <g id="line2d_25">
      <path clip-path="url(#p3701ed12cd)" d="M 90 183.285109 
L 648 183.285109 
" style="fill:none;stroke:#b0b0b0;stroke-linecap:square;stroke-width:0.8;"/>
     </g>
     <g id="line2d_26">
      <g>
       <use style="stroke:#000000;stroke-width:0.8;" x="90" xlink:href="#m5be6c2be99" y="183.285109"/>
      </g>
     </g>
     <g id="text_14">
      <!-- 60 -->
      <defs>
       <path d="M 33.015625 40.375 
Q 26.375 40.375 22.484375 35.828125 
Q 18.609375 31.296875 18.609375 23.390625 
Q 18.609375 15.53125 22.484375 10.953125 
Q 26.375 6.390625 33.015625 6.390625 
Q 39.65625 6.390625 43.53125 10.953125 
Q 47.40625 15.53125 47.40625 23.390625 
Q 47.40625 31.296875 43.53125 35.828125 
Q 39.65625 40.375 33.015625 40.375 
z
M 52.59375 71.296875 
L 52.59375 62.3125 
Q 48.875 64.0625 45.09375 64.984375 
Q 41.3125 65.921875 37.59375 65.921875 
Q 27.828125 65.921875 22.671875 59.328125 
Q 17.53125 52.734375 16.796875 39.40625 
Q 19.671875 43.65625 24.015625 45.921875 
Q 28.375 48.1875 33.59375 48.1875 
Q 44.578125 48.1875 50.953125 41.515625 
Q 57.328125 34.859375 57.328125 23.390625 
Q 57.328125 12.15625 50.6875 5.359375 
Q 44.046875 -1.421875 33.015625 -1.421875 
Q 20.359375 -1.421875 13.671875 8.265625 
Q 6.984375 17.96875 6.984375 36.375 
Q 6.984375 53.65625 15.1875 63.9375 
Q 23.390625 74.21875 37.203125 74.21875 
Q 40.921875 74.21875 44.703125 73.484375 
Q 48.484375 72.75 52.59375 71.296875 
z
" id="DejaVuSans-54"/>
      </defs>
      <g transform="translate(70.275 187.084328)scale(0.1 -0.1)">
       <use xlink:href="#DejaVuSans-54"/>
       <use x="63.623047" xlink:href="#DejaVuSans-48"/>
      </g>
     </g>
    </g>
    <g id="ytick_5">
     <g id="line2d_27">
      <path clip-path="url(#p3701ed12cd)" d="M 90 123.316623 
L 648 123.316623 
" style="fill:none;stroke:#b0b0b0;stroke-linecap:square;stroke-width:0.8;"/>
     </g>
     <g id="line2d_28">
      <g>
       <use style="stroke:#000000;stroke-width:0.8;" x="90" xlink:href="#m5be6c2be99" y="123.316623"/>
      </g>
     </g>
     <g id="text_15">
      <!-- 80 -->
      <defs>
       <path d="M 31.78125 34.625 
Q 24.75 34.625 20.71875 30.859375 
Q 16.703125 27.09375 16.703125 20.515625 
Q 16.703125 13.921875 20.71875 10.15625 
Q 24.75 6.390625 31.78125 6.390625 
Q 38.8125 6.390625 42.859375 10.171875 
Q 46.921875 13.96875 46.921875 20.515625 
Q 46.921875 27.09375 42.890625 30.859375 
Q 38.875 34.625 31.78125 34.625 
z
M 21.921875 38.8125 
Q 15.578125 40.375 12.03125 44.71875 
Q 8.5 49.078125 8.5 55.328125 
Q 8.5 64.0625 14.71875 69.140625 
Q 20.953125 74.21875 31.78125 74.21875 
Q 42.671875 74.21875 48.875 69.140625 
Q 55.078125 64.0625 55.078125 55.328125 
Q 55.078125 49.078125 51.53125 44.71875 
Q 48 40.375 41.703125 38.8125 
Q 48.828125 37.15625 52.796875 32.3125 
Q 56.78125 27.484375 56.78125 20.515625 
Q 56.78125 9.90625 50.3125 4.234375 
Q 43.84375 -1.421875 31.78125 -1.421875 
Q 19.734375 -1.421875 13.25 4.234375 
Q 6.78125 9.90625 6.78125 20.515625 
Q 6.78125 27.484375 10.78125 32.3125 
Q 14.796875 37.15625 21.921875 38.8125 
z
M 18.3125 54.390625 
Q 18.3125 48.734375 21.84375 45.5625 
Q 25.390625 42.390625 31.78125 42.390625 
Q 38.140625 42.390625 41.71875 45.5625 
Q 45.3125 48.734375 45.3125 54.390625 
Q 45.3125 60.0625 41.71875 63.234375 
Q 38.140625 66.40625 31.78125 66.40625 
Q 25.390625 66.40625 21.84375 63.234375 
Q 18.3125 60.0625 18.3125 54.390625 
z
" id="DejaVuSans-56"/>
      </defs>
      <g transform="translate(70.275 127.115841)scale(0.1 -0.1)">
       <use xlink:href="#DejaVuSans-56"/>
       <use x="63.623047" xlink:href="#DejaVuSans-48"/>
      </g>
     </g>
    </g>
    <g id="ytick_6">
     <g id="line2d_29">
      <path clip-path="url(#p3701ed12cd)" d="M 90 63.348137 
L 648 63.348137 
" style="fill:none;stroke:#b0b0b0;stroke-linecap:square;stroke-width:0.8;"/>
     </g>
     <g id="line2d_30">
      <g>
       <use style="stroke:#000000;stroke-width:0.8;" x="90" xlink:href="#m5be6c2be99" y="63.348137"/>
      </g>
     </g>
     <g id="text_16">
      <!-- 100 -->
      <g transform="translate(63.9125 67.147355)scale(0.1 -0.1)">
       <use xlink:href="#DejaVuSans-49"/>
       <use x="63.623047" xlink:href="#DejaVuSans-48"/>
       <use x="127.246094" xlink:href="#DejaVuSans-48"/>
      </g>
     </g>
    </g>
    <g id="text_17">
     <!-- $f(x)$ -->
     <defs>
      <path d="M 47.796875 75.984375 
L 46.390625 68.5 
L 37.796875 68.5 
Q 32.90625 68.5 30.6875 66.578125 
Q 28.46875 64.65625 27.390625 59.515625 
L 26.421875 54.6875 
L 41.21875 54.6875 
L 39.890625 47.703125 
L 25.09375 47.703125 
L 15.828125 0 
L 6.78125 0 
L 16.109375 47.703125 
L 7.515625 47.703125 
L 8.796875 54.6875 
L 17.390625 54.6875 
L 18.109375 58.5 
Q 19.96875 68.171875 24.625 72.078125 
Q 29.296875 75.984375 39.3125 75.984375 
z
" id="DejaVuSans-Oblique-102"/>
      <path d="M 31 75.875 
Q 24.46875 64.65625 21.28125 53.65625 
Q 18.109375 42.671875 18.109375 31.390625 
Q 18.109375 20.125 21.3125 9.0625 
Q 24.515625 -2 31 -13.1875 
L 23.1875 -13.1875 
Q 15.875 -1.703125 12.234375 9.375 
Q 8.59375 20.453125 8.59375 31.390625 
Q 8.59375 42.28125 12.203125 53.3125 
Q 15.828125 64.359375 23.1875 75.875 
z
" id="DejaVuSans-40"/>
      <path d="M 8.015625 75.875 
L 15.828125 75.875 
Q 23.140625 64.359375 26.78125 53.3125 
Q 30.421875 42.28125 30.421875 31.390625 
Q 30.421875 20.453125 26.78125 9.375 
Q 23.140625 -1.703125 15.828125 -13.1875 
L 8.015625 -13.1875 
Q 14.5 -2 17.703125 9.0625 
Q 20.90625 20.125 20.90625 31.390625 
Q 20.90625 42.671875 17.703125 53.65625 
Q 14.5 64.65625 8.015625 75.875 
z
" id="DejaVuSans-41"/>
     </defs>
     <g transform="translate(57.832812 223.57)rotate(-90)scale(0.1 -0.1)">
      <use transform="translate(0 0.015625)" xlink:href="#DejaVuSans-Oblique-102"/>
      <use transform="translate(35.205078 0.015625)" xlink:href="#DejaVuSans-40"/>
      <use transform="translate(74.21875 0.015625)" xlink:href="#DejaVuSans-Oblique-120"/>
      <use transform="translate(133.398438 0.015625)" xlink:href="#DejaVuSans-41"/>
     </g>
    </g>
   </g>
   <g id="line2d_31">
    <defs>
     <path d="M 0 3 
C 0.795609 3 1.55874 2.683901 2.12132 2.12132 
C 2.683901 1.55874 3 0.795609 3 0 
C 3 -0.795609 2.683901 -1.55874 2.12132 -2.12132 
C 1.55874 -2.683901 0.795609 -3 0 -3 
C -0.795609 -3 -1.55874 -2.683901 -2.12132 -2.12132 
C -2.683901 -1.55874 -3 -0.795609 -3 0 
C -3 0.795609 -2.683901 1.55874 -2.12132 2.12132 
C -1.55874 2.683901 -0.795609 3 0 3 
z
" id="m7825b5067c" style="stroke:#0000ff;"/>
    </defs>
    <g clip-path="url(#p3701ed12cd)">
     <use style="fill:#0000ff;stroke:#0000ff;" x="115.363636" xlink:href="#m7825b5067c" y="66.665455"/>
     <use style="fill:#0000ff;stroke:#0000ff;" x="117.242003" xlink:href="#m7825b5067c" y="70.96448"/>
     <use style="fill:#0000ff;stroke:#0000ff;" x="118.581118" xlink:href="#m7825b5067c" y="74.010167"/>
     <use style="fill:#0000ff;stroke:#0000ff;" x="120.16661" xlink:href="#m7825b5067c" y="77.595593"/>
     <use style="fill:#0000ff;stroke:#0000ff;" x="139.847043" xlink:href="#m7825b5067c" y="120.238864"/>
     <use style="fill:#0000ff;stroke:#0000ff;" x="169.453632" xlink:href="#m7825b5067c" y="177.89847"/>
     <use style="fill:#0000ff;stroke:#0000ff;" x="179.313297" xlink:href="#m7825b5067c" y="195.369339"/>
     <use style="fill:#0000ff;stroke:#0000ff;" x="182.940911" xlink:href="#m7825b5067c" y="201.579656"/>
     <use style="fill:#0000ff;stroke:#0000ff;" x="185.106073" xlink:href="#m7825b5067c" y="205.23052"/>
     <use style="fill:#0000ff;stroke:#0000ff;" x="204.413896" xlink:href="#m7825b5067c" y="235.942683"/>
     <use style="fill:#0000ff;stroke:#0000ff;" x="212.412637" xlink:href="#m7825b5067c" y="247.694281"/>
     <use style="fill:#0000ff;stroke:#0000ff;" x="213.914023" xlink:href="#m7825b5067c" y="249.836645"/>
     <use style="fill:#0000ff;stroke:#0000ff;" x="213.994118" xlink:href="#m7825b5067c" y="249.950374"/>
     <use style="fill:#0000ff;stroke:#0000ff;" x="217.544633" xlink:href="#m7825b5067c" y="254.934346"/>
     <use style="fill:#0000ff;stroke:#0000ff;" x="220.997065" xlink:href="#m7825b5067c" y="259.673075"/>
     <use style="fill:#0000ff;stroke:#0000ff;" x="224.705146" xlink:href="#m7825b5067c" y="264.644591"/>
     <use style="fill:#0000ff;stroke:#0000ff;" x="227.966748" xlink:href="#m7825b5067c" y="268.916377"/>
     <use style="fill:#0000ff;stroke:#0000ff;" x="232.871023" xlink:href="#m7825b5067c" y="275.161443"/>
     <use style="fill:#0000ff;stroke:#0000ff;" x="236.994672" xlink:href="#m7825b5067c" y="280.246848"/>
     <use style="fill:#0000ff;stroke:#0000ff;" x="242.838798" xlink:href="#m7825b5067c" y="287.194853"/>
     <use style="fill:#0000ff;stroke:#0000ff;" x="249.2479" xlink:href="#m7825b5067c" y="294.465189"/>
     <use style="fill:#0000ff;stroke:#0000ff;" x="251.200494" xlink:href="#m7825b5067c" y="296.607536"/>
     <use style="fill:#0000ff;stroke:#0000ff;" x="258.955013" xlink:href="#m7825b5067c" y="304.78076"/>
     <use style="fill:#0000ff;stroke:#0000ff;" x="261.142173" xlink:href="#m7825b5067c" y="306.989282"/>
     <use style="fill:#0000ff;stroke:#0000ff;" x="272.568619" xlink:href="#m7825b5067c" y="317.835336"/>
     <use style="fill:#0000ff;stroke:#0000ff;" x="280.436973" xlink:href="#m7825b5067c" y="324.628644"/>
     <use style="fill:#0000ff;stroke:#0000ff;" x="283.073063" xlink:href="#m7825b5067c" y="326.78138"/>
     <use style="fill:#0000ff;stroke:#0000ff;" x="288.282926" xlink:href="#m7825b5067c" y="330.85412"/>
     <use style="fill:#0000ff;stroke:#0000ff;" x="293.49113" xlink:href="#m7825b5067c" y="334.684182"/>
     <use style="fill:#0000ff;stroke:#0000ff;" x="303.084877" xlink:href="#m7825b5067c" y="341.107595"/>
     <use style="fill:#0000ff;stroke:#0000ff;" x="309.025905" xlink:href="#m7825b5067c" y="344.674783"/>
     <use style="fill:#0000ff;stroke:#0000ff;" x="315.564465" xlink:href="#m7825b5067c" y="348.23775"/>
     <use style="fill:#0000ff;stroke:#0000ff;" x="319.199755" xlink:href="#m7825b5067c" y="350.054144"/>
     <use style="fill:#0000ff;stroke:#0000ff;" x="323.122791" xlink:href="#m7825b5067c" y="351.882404"/>
     <use style="fill:#0000ff;stroke:#0000ff;" x="339.766465" xlink:href="#m7825b5067c" y="358.116092"/>
     <use style="fill:#0000ff;stroke:#0000ff;" x="354.221435" xlink:href="#m7825b5067c" y="361.530231"/>
     <use style="fill:#0000ff;stroke:#0000ff;" x="356.098113" xlink:href="#m7825b5067c" y="361.837139"/>
     <use style="fill:#0000ff;stroke:#0000ff;" x="357.100215" xlink:href="#m7825b5067c" y="361.988187"/>
     <use style="fill:#0000ff;stroke:#0000ff;" x="359.183594" xlink:href="#m7825b5067c" y="362.27362"/>
     <use style="fill:#0000ff;stroke:#0000ff;" x="360.77474" xlink:href="#m7825b5067c" y="362.465605"/>
     <use style="fill:#0000ff;stroke:#0000ff;" x="362.611351" xlink:href="#m7825b5067c" y="362.659201"/>
     <use style="fill:#0000ff;stroke:#0000ff;" x="363.961252" xlink:href="#m7825b5067c" y="362.782358"/>
     <use style="fill:#0000ff;stroke:#0000ff;" x="368.460305" xlink:href="#m7825b5067c" y="363.075759"/>
     <use style="fill:#0000ff;stroke:#0000ff;" x="369.585959" xlink:href="#m7825b5067c" y="363.121"/>
     <use style="fill:#0000ff;stroke:#0000ff;" x="371.642654" xlink:href="#m7825b5067c" y="363.174545"/>
     <use style="fill:#0000ff;stroke:#0000ff;" x="380.833618" xlink:href="#m7825b5067c" y="362.953942"/>
     <use style="fill:#0000ff;stroke:#0000ff;" x="382.757923" xlink:href="#m7825b5067c" y="362.812601"/>
     <use style="fill:#0000ff;stroke:#0000ff;" x="384.866578" xlink:href="#m7825b5067c" y="362.619889"/>
     <use style="fill:#0000ff;stroke:#0000ff;" x="390.250084" xlink:href="#m7825b5067c" y="361.948452"/>
     <use style="fill:#0000ff;stroke:#0000ff;" x="391.402086" xlink:href="#m7825b5067c" y="361.771279"/>
     <use style="fill:#0000ff;stroke:#0000ff;" x="398.33334" xlink:href="#m7825b5067c" y="360.456041"/>
     <use style="fill:#0000ff;stroke:#0000ff;" x="399.680507" xlink:href="#m7825b5067c" y="360.150797"/>
     <use style="fill:#0000ff;stroke:#0000ff;" x="400.26659" xlink:href="#m7825b5067c" y="360.01296"/>
     <use style="fill:#0000ff;stroke:#0000ff;" x="405.088925" xlink:href="#m7825b5067c" y="358.762804"/>
     <use style="fill:#0000ff;stroke:#0000ff;" x="420.051339" xlink:href="#m7825b5067c" y="353.566985"/>
     <use style="fill:#0000ff;stroke:#0000ff;" x="426.170869" xlink:href="#m7825b5067c" y="350.868003"/>
     <use style="fill:#0000ff;stroke:#0000ff;" x="428.297283" xlink:href="#m7825b5067c" y="349.852158"/>
     <use style="fill:#0000ff;stroke:#0000ff;" x="436.746341" xlink:href="#m7825b5067c" y="345.418315"/>
     <use style="fill:#0000ff;stroke:#0000ff;" x="438.970616" xlink:href="#m7825b5067c" y="344.145461"/>
     <use style="fill:#0000ff;stroke:#0000ff;" x="446.511978" xlink:href="#m7825b5067c" y="339.50225"/>
     <use style="fill:#0000ff;stroke:#0000ff;" x="449.268385" xlink:href="#m7825b5067c" y="337.678857"/>
     <use style="fill:#0000ff;stroke:#0000ff;" x="455.642985" xlink:href="#m7825b5067c" y="333.203056"/>
     <use style="fill:#0000ff;stroke:#0000ff;" x="460.149532" xlink:href="#m7825b5067c" y="329.820724"/>
     <use style="fill:#0000ff;stroke:#0000ff;" x="460.463717" xlink:href="#m7825b5067c" y="329.578179"/>
     <use style="fill:#0000ff;stroke:#0000ff;" x="462.855926" xlink:href="#m7825b5067c" y="327.702634"/>
     <use style="fill:#0000ff;stroke:#0000ff;" x="462.98895" xlink:href="#m7825b5067c" y="327.596844"/>
     <use style="fill:#0000ff;stroke:#0000ff;" x="464.301876" xlink:href="#m7825b5067c" y="326.544286"/>
     <use style="fill:#0000ff;stroke:#0000ff;" x="464.688618" xlink:href="#m7825b5067c" y="326.231317"/>
     <use style="fill:#0000ff;stroke:#0000ff;" x="465.532633" xlink:href="#m7825b5067c" y="325.543674"/>
     <use style="fill:#0000ff;stroke:#0000ff;" x="482.075563" xlink:href="#m7825b5067c" y="310.786164"/>
     <use style="fill:#0000ff;stroke:#0000ff;" x="482.081716" xlink:href="#m7825b5067c" y="310.780222"/>
     <use style="fill:#0000ff;stroke:#0000ff;" x="482.607659" xlink:href="#m7825b5067c" y="310.271079"/>
     <use style="fill:#0000ff;stroke:#0000ff;" x="485.875785" xlink:href="#m7825b5067c" y="307.052168"/>
     <use style="fill:#0000ff;stroke:#0000ff;" x="486.746658" xlink:href="#m7825b5067c" y="306.178373"/>
     <use style="fill:#0000ff;stroke:#0000ff;" x="488.402899" xlink:href="#m7825b5067c" y="304.497965"/>
     <use style="fill:#0000ff;stroke:#0000ff;" x="498.942248" xlink:href="#m7825b5067c" y="293.232994"/>
     <use style="fill:#0000ff;stroke:#0000ff;" x="507.998669" xlink:href="#m7825b5067c" y="282.763558"/>
     <use style="fill:#0000ff;stroke:#0000ff;" x="509.559884" xlink:href="#m7825b5067c" y="280.885013"/>
     <use style="fill:#0000ff;stroke:#0000ff;" x="511.962523" xlink:href="#m7825b5067c" y="277.951654"/>
     <use style="fill:#0000ff;stroke:#0000ff;" x="515.220386" xlink:href="#m7825b5067c" y="273.892119"/>
     <use style="fill:#0000ff;stroke:#0000ff;" x="516.242536" xlink:href="#m7825b5067c" y="272.598981"/>
     <use style="fill:#0000ff;stroke:#0000ff;" x="518.704831" xlink:href="#m7825b5067c" y="269.445731"/>
     <use style="fill:#0000ff;stroke:#0000ff;" x="519.75595" xlink:href="#m7825b5067c" y="268.083227"/>
     <use style="fill:#0000ff;stroke:#0000ff;" x="526.147411" xlink:href="#m7825b5067c" y="259.586717"/>
     <use style="fill:#0000ff;stroke:#0000ff;" x="526.369772" xlink:href="#m7825b5067c" y="259.28458"/>
     <use style="fill:#0000ff;stroke:#0000ff;" x="526.473203" xlink:href="#m7825b5067c" y="259.143892"/>
     <use style="fill:#0000ff;stroke:#0000ff;" x="526.552469" xlink:href="#m7825b5067c" y="259.036008"/>
     <use style="fill:#0000ff;stroke:#0000ff;" x="539.270213" xlink:href="#m7825b5067c" y="241.002661"/>
     <use style="fill:#0000ff;stroke:#0000ff;" x="541.135804" xlink:href="#m7825b5067c" y="238.236281"/>
     <use style="fill:#0000ff;stroke:#0000ff;" x="561.599612" xlink:href="#m7825b5067c" y="205.858894"/>
     <use style="fill:#0000ff;stroke:#0000ff;" x="564.208455" xlink:href="#m7825b5067c" y="201.463457"/>
     <use style="fill:#0000ff;stroke:#0000ff;" x="587.390789" xlink:href="#m7825b5067c" y="159.745538"/>
     <use style="fill:#0000ff;stroke:#0000ff;" x="591.308183" xlink:href="#m7825b5067c" y="152.223719"/>
     <use style="fill:#0000ff;stroke:#0000ff;" x="601.505226" xlink:href="#m7825b5067c" y="132.00396"/>
     <use style="fill:#0000ff;stroke:#0000ff;" x="605.412791" xlink:href="#m7825b5067c" y="124.010457"/>
     <use style="fill:#0000ff;stroke:#0000ff;" x="608.460401" xlink:href="#m7825b5067c" y="117.681812"/>
     <use style="fill:#0000ff;stroke:#0000ff;" x="615.711247" xlink:href="#m7825b5067c" y="102.292606"/>
     <use style="fill:#0000ff;stroke:#0000ff;" x="621.99461" xlink:href="#m7825b5067c" y="88.578439"/>
     <use style="fill:#0000ff;stroke:#0000ff;" x="622.190058" xlink:href="#m7825b5067c" y="88.146216"/>
     <use style="fill:#0000ff;stroke:#0000ff;" x="622.636364" xlink:href="#m7825b5067c" y="87.157966"/>
    </g>
   </g>
   <g id="patch_3">
    <path d="M 90 378 
L 90 51.84 
" style="fill:none;stroke:#000000;stroke-linecap:square;stroke-linejoin:miter;stroke-width:0.8;"/>
   </g>
   <g id="patch_4">
    <path d="M 648 378 
L 648 51.84 
" style="fill:none;stroke:#000000;stroke-linecap:square;stroke-linejoin:miter;stroke-width:0.8;"/>
   </g>
   <g id="patch_5">
    <path d="M 90 378 
L 648 378 
" style="fill:none;stroke:#000000;stroke-linecap:square;stroke-linejoin:miter;stroke-width:0.8;"/>
   </g>
   <g id="patch_6">
    <path d="M 90 51.84 
L 648 51.84 
" style="fill:none;stroke:#000000;stroke-linecap:square;stroke-linejoin:miter;stroke-width:0.8;"/>
   </g>
   <g id="text_18">
    <!-- Функция -->
    <defs>
     <path d="M 38.140625 57.90625 
Q 27.546875 56.9375 21.921875 51.953125 
Q 16.3125 46.96875 16.3125 37.359375 
Q 16.3125 27.734375 21.921875 22.78125 
Q 27.546875 17.828125 38.140625 16.84375 
z
M 48.046875 16.84375 
Q 58.640625 17.828125 64.203125 22.78125 
Q 69.78125 27.734375 69.78125 37.359375 
Q 69.78125 46.96875 64.203125 51.953125 
Q 58.640625 56.9375 48.046875 57.90625 
z
M 38.140625 8.6875 
Q 22.65625 9.8125 14.28125 17.109375 
Q 5.90625 24.421875 5.90625 37.359375 
Q 5.90625 50.296875 14.28125 57.640625 
Q 22.65625 64.984375 38.140625 66.109375 
L 38.140625 72.90625 
L 48.046875 72.90625 
L 48.046875 66.109375 
Q 63.53125 64.984375 71.84375 57.6875 
Q 80.171875 50.390625 80.171875 37.359375 
Q 80.171875 24.421875 71.84375 17.109375 
Q 63.53125 9.8125 48.046875 8.6875 
L 48.046875 0 
L 38.140625 0 
z
" id="DejaVuSans-1060"/>
     <path d="M 32.171875 -5.078125 
Q 28.375 -14.84375 24.75 -17.8125 
Q 21.140625 -20.796875 15.09375 -20.796875 
L 7.90625 -20.796875 
L 7.90625 -13.28125 
L 13.1875 -13.28125 
Q 16.890625 -13.28125 18.9375 -11.515625 
Q 21 -9.765625 23.484375 -3.21875 
L 25.09375 0.875 
L 2.984375 54.6875 
L 12.5 54.6875 
L 29.59375 11.921875 
L 46.6875 54.6875 
L 56.203125 54.6875 
z
" id="DejaVuSans-1091"/>
     <path d="M 9.078125 54.6875 
L 18.109375 54.6875 
L 18.109375 32.375 
L 47.265625 32.375 
L 47.265625 54.6875 
L 56.296875 54.6875 
L 56.296875 0 
L 47.265625 0 
L 47.265625 25.203125 
L 18.109375 25.203125 
L 18.109375 0 
L 9.078125 0 
z
" id="DejaVuSans-1085"/>
     <path d="M 9.078125 54.6875 
L 18.015625 54.6875 
L 18.015625 29 
L 43.359375 54.6875 
L 54.390625 54.6875 
L 33.5 33.546875 
L 57.078125 0 
L 47.015625 0 
L 27.640625 27.59375 
L 18.015625 17.828125 
L 18.015625 0 
L 9.078125 0 
z
" id="DejaVuSans-1082"/>
     <path d="M 56.296875 0 
L 9.078125 0 
L 9.078125 54.6875 
L 18.109375 54.6875 
L 18.109375 7.171875 
L 47.265625 7.171875 
L 47.265625 54.6875 
L 56.296875 54.6875 
L 56.296875 7.171875 
L 63.484375 7.171875 
L 63.484375 -13.8125 
L 56.296875 -13.8125 
z
" id="DejaVuSans-1094"/>
     <path d="M 55.90625 54.6875 
L 55.90625 0 
L 46.96875 0 
L 46.96875 43.890625 
L 20.609375 0 
L 9.078125 0 
L 9.078125 54.6875 
L 18.015625 54.6875 
L 18.015625 10.890625 
L 44.34375 54.6875 
z
" id="DejaVuSans-1080"/>
     <path d="M 18.453125 38.921875 
Q 18.453125 34.859375 21.578125 32.5625 
Q 24.703125 30.28125 30.515625 30.28125 
L 42.625 30.28125 
L 42.625 47.515625 
L 30.515625 47.515625 
Q 24.703125 47.515625 21.578125 45.265625 
Q 18.453125 43.015625 18.453125 38.921875 
z
M 5.671875 0 
L 22.359375 23.96875 
Q 16.703125 25.25 12.9375 28.59375 
Q 9.1875 31.9375 9.1875 38.921875 
Q 9.1875 46.828125 14.421875 50.75 
Q 19.671875 54.6875 30.28125 54.6875 
L 51.65625 54.6875 
L 51.65625 0 
L 42.625 0 
L 42.625 23.09375 
L 31.453125 23.09375 
L 15.328125 0 
z
" id="DejaVuSans-1103"/>
    </defs>
    <g transform="translate(341.145 45.84)scale(0.12 -0.12)">
     <use xlink:href="#DejaVuSans-1060"/>
     <use x="86.083984" xlink:href="#DejaVuSans-1091"/>
     <use x="145.263672" xlink:href="#DejaVuSans-1085"/>
     <use x="210.644531" xlink:href="#DejaVuSans-1082"/>
     <use x="271.044922" xlink:href="#DejaVuSans-1094"/>
     <use x="339.111328" xlink:href="#DejaVuSans-1080"/>
     <use x="404.101562" xlink:href="#DejaVuSans-1103"/>
    </g>
   </g>
   <g id="legend_1">
    <g id="patch_7">
     <path d="M 516.339062 74.688437 
L 641 74.688437 
Q 643 74.688437 643 72.688437 
L 643 58.84 
Q 643 56.84 641 56.84 
L 516.339062 56.84 
Q 514.339062 56.84 514.339062 58.84 
L 514.339062 72.688437 
Q 514.339062 74.688437 516.339062 74.688437 
z
" style="fill:#ffffff;opacity:0.8;stroke:#cccccc;stroke-linejoin:miter;"/>
    </g>
    <g id="line2d_32"/>
    <g id="line2d_33">
     <g>
      <use style="fill:#0000ff;stroke:#0000ff;" x="528.339062" xlink:href="#m7825b5067c" y="65.10875"/>
     </g>
    </g>
    <g id="text_19">
     <!-- данные обучения -->
     <defs>
      <path d="M 21.625 7.171875 
L 47.703125 7.171875 
L 47.703125 47.515625 
L 28.8125 47.515625 
L 28.8125 40.671875 
Q 28.8125 20.5625 23.046875 9.8125 
z
M 8.59375 7.171875 
Q 13.03125 9.125 14.984375 13.28125 
Q 19.78125 23.578125 19.78125 44.34375 
L 19.78125 54.6875 
L 56.734375 54.6875 
L 56.734375 7.171875 
L 63.921875 7.171875 
L 63.921875 -13.8125 
L 56.734375 -13.8125 
L 56.734375 0 
L 12.40625 0 
L 12.40625 -13.8125 
L 5.21875 -13.8125 
L 5.21875 7.171875 
z
" id="DejaVuSans-1076"/>
      <path d="M 34.28125 27.484375 
Q 23.390625 27.484375 19.1875 25 
Q 14.984375 22.515625 14.984375 16.5 
Q 14.984375 11.71875 18.140625 8.90625 
Q 21.296875 6.109375 26.703125 6.109375 
Q 34.1875 6.109375 38.703125 11.40625 
Q 43.21875 16.703125 43.21875 25.484375 
L 43.21875 27.484375 
z
M 52.203125 31.203125 
L 52.203125 0 
L 43.21875 0 
L 43.21875 8.296875 
Q 40.140625 3.328125 35.546875 0.953125 
Q 30.953125 -1.421875 24.3125 -1.421875 
Q 15.921875 -1.421875 10.953125 3.296875 
Q 6 8.015625 6 15.921875 
Q 6 25.140625 12.171875 29.828125 
Q 18.359375 34.515625 30.609375 34.515625 
L 43.21875 34.515625 
L 43.21875 35.40625 
Q 43.21875 41.609375 39.140625 45 
Q 35.0625 48.390625 27.6875 48.390625 
Q 23 48.390625 18.546875 47.265625 
Q 14.109375 46.140625 10.015625 43.890625 
L 10.015625 52.203125 
Q 14.9375 54.109375 19.578125 55.046875 
Q 24.21875 56 28.609375 56 
Q 40.484375 56 46.34375 49.84375 
Q 52.203125 43.703125 52.203125 31.203125 
z
" id="DejaVuSans-1072"/>
      <path d="M 61.078125 54.6875 
L 70.0625 54.6875 
L 70.0625 0 
L 61.078125 0 
z
M 65.578125 56 
z
M 43.453125 16.21875 
Q 43.453125 20.609375 40.25 22.90625 
Q 37.0625 25.203125 30.90625 25.203125 
L 18.109375 25.203125 
L 18.109375 7.171875 
L 30.90625 7.171875 
Q 37.0625 7.171875 40.25 9.484375 
Q 43.453125 11.8125 43.453125 16.21875 
z
M 9.078125 54.6875 
L 18.109375 54.6875 
L 18.109375 32.375 
L 31.296875 32.375 
Q 41.75 32.375 47.390625 28.390625 
Q 53.03125 24.421875 53.03125 16.21875 
Q 53.03125 8.015625 47.390625 4 
Q 41.75 0 31.296875 0 
L 9.078125 0 
z
" id="DejaVuSans-1099"/>
      <path d="M 56.203125 29.59375 
L 56.203125 25.203125 
L 14.890625 25.203125 
Q 15.484375 15.921875 20.484375 11.0625 
Q 25.484375 6.203125 34.421875 6.203125 
Q 39.59375 6.203125 44.453125 7.46875 
Q 49.3125 8.734375 54.109375 11.28125 
L 54.109375 2.78125 
Q 49.265625 0.734375 44.1875 -0.34375 
Q 39.109375 -1.421875 33.890625 -1.421875 
Q 20.796875 -1.421875 13.15625 6.1875 
Q 5.515625 13.8125 5.515625 26.8125 
Q 5.515625 40.234375 12.765625 48.109375 
Q 20.015625 56 32.328125 56 
Q 43.359375 56 49.78125 48.890625 
Q 56.203125 41.796875 56.203125 29.59375 
z
M 47.21875 32.234375 
Q 47.125 39.59375 43.09375 43.984375 
Q 39.0625 48.390625 32.421875 48.390625 
Q 24.90625 48.390625 20.390625 44.140625 
Q 15.875 39.890625 15.1875 32.171875 
z
" id="DejaVuSans-1077"/>
      <path id="DejaVuSans-32"/>
      <path d="M 30.609375 48.390625 
Q 23.390625 48.390625 19.1875 42.75 
Q 14.984375 37.109375 14.984375 27.296875 
Q 14.984375 17.484375 19.15625 11.84375 
Q 23.34375 6.203125 30.609375 6.203125 
Q 37.796875 6.203125 41.984375 11.859375 
Q 46.1875 17.53125 46.1875 27.296875 
Q 46.1875 37.015625 41.984375 42.703125 
Q 37.796875 48.390625 30.609375 48.390625 
z
M 30.609375 56 
Q 42.328125 56 49.015625 48.375 
Q 55.71875 40.765625 55.71875 27.296875 
Q 55.71875 13.875 49.015625 6.21875 
Q 42.328125 -1.421875 30.609375 -1.421875 
Q 18.84375 -1.421875 12.171875 6.21875 
Q 5.515625 13.875 5.515625 27.296875 
Q 5.515625 40.765625 12.171875 48.375 
Q 18.84375 56 30.609375 56 
z
" id="DejaVuSans-1086"/>
      <path d="M 31.109375 56 
Q 42.828125 56 49.515625 48.375 
Q 56.203125 40.765625 56.203125 27.296875 
Q 56.203125 13.875 49.515625 6.21875 
Q 42.828125 -1.421875 31.109375 -1.421875 
Q 19.34375 -1.421875 12.84375 6 
Q 6.34375 13.421875 6 27.296875 
L 5.71875 38.484375 
Q 5.46875 44.28125 5.46875 46.296875 
Q 5.46875 54.109375 8.296875 59.859375 
Q 12.75 68.890625 20.4375 72.796875 
Q 28.125 76.703125 41.015625 76.8125 
Q 46.96875 76.859375 49.609375 77.6875 
L 52.09375 70.5625 
Q 49.703125 69.578125 47.515625 69.53125 
L 35.296875 68.703125 
Q 29.15625 68.265625 25.4375 66.109375 
Q 15.71875 60.40625 14.796875 52.9375 
L 14.453125 50.203125 
Q 20.796875 56 31.109375 56 
z
M 31.109375 48.390625 
Q 23.875 48.390625 19.671875 42.75 
Q 15.484375 37.109375 15.484375 27.296875 
Q 15.484375 17.484375 19.65625 11.84375 
Q 23.828125 6.203125 31.109375 6.203125 
Q 38.28125 6.203125 42.484375 11.859375 
Q 46.6875 17.53125 46.6875 27.296875 
Q 46.6875 37.015625 42.484375 42.703125 
Q 38.28125 48.390625 31.109375 48.390625 
z
" id="DejaVuSans-1073"/>
      <path d="M 41.015625 0 
L 41.015625 23 
L 24.265625 23 
Q 16.796875 23 11.8125 27.640625 
Q 7.328125 31.84375 7.328125 40.828125 
L 7.328125 54.6875 
L 16.3125 54.6875 
L 16.3125 41.65625 
Q 16.3125 35.9375 18.84375 33.0625 
Q 21.4375 30.171875 26.515625 30.171875 
L 41.015625 30.171875 
L 41.015625 54.6875 
L 50 54.6875 
L 50 0 
z
" id="DejaVuSans-1095"/>
     </defs>
     <g transform="translate(546.339062 68.60875)scale(0.1 -0.1)">
      <use xlink:href="#DejaVuSans-1076"/>
      <use x="69.140625" xlink:href="#DejaVuSans-1072"/>
      <use x="130.419922" xlink:href="#DejaVuSans-1085"/>
      <use x="195.800781" xlink:href="#DejaVuSans-1085"/>
      <use x="261.181641" xlink:href="#DejaVuSans-1099"/>
      <use x="340.136719" xlink:href="#DejaVuSans-1077"/>
      <use x="401.660156" xlink:href="#DejaVuSans-32"/>
      <use x="433.447266" xlink:href="#DejaVuSans-1086"/>
      <use x="494.628906" xlink:href="#DejaVuSans-1073"/>
      <use x="556.298828" xlink:href="#DejaVuSans-1091"/>
      <use x="615.478516" xlink:href="#DejaVuSans-1095"/>
      <use x="674.560547" xlink:href="#DejaVuSans-1077"/>
      <use x="736.083984" xlink:href="#DejaVuSans-1085"/>
      <use x="801.464844" xlink:href="#DejaVuSans-1080"/>
      <use x="866.455078" xlink:href="#DejaVuSans-1103"/>
     </g>
    </g>
   </g>
  </g>
 </g>
 <defs>
  <clipPath id="p3701ed12cd">
   <rect height="326.16" width="558" x="90" y="51.84"/>
  </clipPath>
 </defs>
</svg>
